<?xml version="1.0" encoding="UTF-8"?>
<svg id="Layer_1" xmlns="http://www.w3.org/2000/svg" xmlns:svg="http://www.w3.org/2000/svg" xmlns:rdf="http://www.w3.org/1999/02/22-rdf-syntax-ns#" xmlns:mapsvg="http://mapsvg.com" xmlns:dc="http://purl.org/dc/elements/1.1/" version="1.1" viewBox="0 0 792.5 316.7">
  <!-- Generator: Adobe Illustrator 29.0.1, SVG Export Plug-In . SVG Version: 2.1.0 Build 192)  -->
  <defs>
    <style>
      .st0 {
        fill: #252f56;
      }
    </style>
  </defs>
  <path id="ID-AC" class="st0" d="M36.7,92.1h-.2c0,0-.7-1-.7-1l-1.2-1.3-1-.5h-.6c0,0-.2-.2-.2-.2v-.2c.1,0,1.1-.2,1.1-.2h2.1c0,.1.7,1.2.7,1.2l.3,1v.9s-.2.3-.3.3ZM9.2,30.9l2.6,1.4v.7c0,0,.4.5.4.5l1,1,1.8,1.4.9.3,3.9,1,4,.3,1.9-.3,2.2-.9h.4l.9.5,1.5-.4h1.1c0,.1,1.4.6,1.4.6l.4.3.3.9.6.2,1-.2,3.9-1.5h.5s.9.9.9.9l1.1,1.5,2.2,2.3,1.6,1.3,1.2.3.9,1.8.2,1.5.4,1,.4.6v.9c0,0,.7,0,.7,0l1,.4.6.3,2.1,1.6v1.3c.1,0-.2.9-.2.9h-.4c0,.1-.8,0-.8,0l-.8.2v.3c0,0-.3.1-.3.1h-.6c0,.1-.4,0-.4,0v.2c0,0,.2.5.2.5v.4s-.4.2-.4.2l.2.5-.5.7v1s-.2.3-.2.3l-.2,1.3-1.2.7v.4c0,0,0,.3,0,.3l-.6-.4h-.2s0,.3,0,.3l.4.7v.3c-.1,0-1.6,1.2-1.6,1.2l-.4.6.3.8.5.5v.3l.3.2v.7s.7.3.7.3l.2.9.6.4-.3.5.3.6v.4s.7.4.7.4h.3c0-.1.4.6.4.6l-.2.8-2.4.7v.2c0,0,.7.1.7.1l.5.5v.7c0,0,.7.7.7.7v1c0,0-.7,0-.7,0h-.2c0,.1.2.4.2.4v.5s.2.9.2.9v1.1l.9.2.6,1.1h1c0,.1,0,.4,0,.4l.2.3-.3.5v.4c0,0,0,.7,0,.7l.5.5v.3s-.6.2-.6.2l-.2,1.4.2,1,.4.6v.7c0,0,.8.3.8.3l.5,1.6-.6,2.8h0l-3.5-2h-.4l-.9.5-2.1-.5-1.7-2.3v-4c0,0-.4-2.2-.4-2.2l-.6-1.8-.2-.2h-.8s-1.6-.6-1.6-.6l-.5-.2-.7-.6-1.2-1.7-.5-2-.5-.8-1.5-.5-1.6-2.5-1.2-2.3-1.4-.8-.5-.5-.3-1.1-1.6-1.1-2.6-.2-1.3.2h-.7c0-.1-.5-.4-.5-.4l-1.7-1.6-1.9-2.8-1.7-1.8-.8-.2-1.3-1-1-.4-1.2-1-2-2.4-2.8-2.6-2.3-1.9-1.9-2.8-2.4-4.7.3-.7v-.3c0,0-1.2-1.9-1.2-1.9l.4-2.1-.6-1.3.2-1.6h.9s2.2-1.4,2.2-1.4h.4c0,0,2.9.4,2.9.4l2.4.8h0Z"/>
  <path id="ID-BA" class="st0" d="M352.6,279h-.5c0,0-1.1-.7-1.1-.7l-.8-.7v-.4c.1,0,.8-.6.8-.6h.3c0,0,1,0,1,0l.3.2.6,1.1v.3s-.5.8-.5.8ZM333.3,266.6l.4.2.3.6h.3c0,.1.7-.3.7-.3l3.3.9,1.9.3,1.7-.2.7-.2,1.7-1.5.9-.4h.3c0,0,4.6,1.8,4.6,1.8l1.9,1.2,1.3,1.6,1.3.7v.4c.1,0,0,.3,0,.3l-.3.4-1.3,1.1-2,1-1,.3h-.9c0,0-1.2.6-1.2.6l-1,.9v.8s-1.3.8-1.3.8l.5.7v-.4c.1,0,.3.7.3.7l-.4.5-1.1.3h-1c0-.1-.2-.5-.2-.5l.8-.6.6-.3-.2-.5.3-.6-.4-.5-1.4-1.5-2.6-2.2-.7-.4-1.6-.6-1.4-.3h-2.1c0,.1-2.4-3-2.4-3l-.3-1.9v-.4c.1,0,.8,0,.8,0Z"/>
  <path id="ID-BB" class="st0" d="M202.1,179.1l-.6.2-.6-.2-1.7-1,.3-.8,1.1-.5,1.7.7v.3c.1,0-.3,1.2-.3,1.2h0ZM218.4,170.6l4.4,1.2,3.1,2.5.5,1.8-1.5,2.6v1.9c-.1,0-1.8.7-1.8.7l-.5,1.1-1.6.4-.2-.3v-1.1c-.1,0-1.8-1.9-1.8-1.9h-.4c0,.1-.5.6-.5.6l.3.4v.8c0,0-.5.3-.5.3l-2.9.9-.6-.2-.6-3.5.6-1.6v-2.3c0,0,.4-.4.4-.4v-.9s.2-1.9.2-1.9l.3-.4h.7c0-.1,1.1,0,1.1,0l1.1-.5h0ZM188.2,157.5l.8,1.3.5,1.4v1.8s.4,1.9.4,1.9l.9,2.8.5,1.1.8,1,.7.7.5.2,4,.7,2.9,1.1-.7.4-1.1,1.2-1.3,3.3v.8c-.1,0,0,.4,0,.4l.8.5h.3c0,0,1.2.5,1.2.5v1.2l-.4.4h-3.4c0,0-1.3-2-1.3-2l-2.8-1.3-2.3-.7-.9-.4-1.7-.2-.4-.3-.9-1.6-.3-1.3v-.6l.6-1.5v-.9c0,0-.7-.5-.7-.5l-.7-.2-.6-.7-.4-3.5v-.3c-.1,0-.9-.6-.9-.6l-4.6-.5-1.1.3h-1.3c0,.1-3.6-.8-3.6-.8l-.3-.9.4-1.3.6-.4,1.9-.7,1.7-1.2.2-.4v-.5c0,0-.2-.5-.2-.5l-.9-.6.2-.9.8-.9,1.1-.7,2.1-.7h.5c0,.1.7,1.9.7,1.9v1.7c.1,0,1.1.7,1.1.7l1.2.3h.5s-1.7-4.2-1.7-4.2l.6-.3,2.5-.7h.4c0,0,2,1.4,2,1.4l.3.4-.3.8v.6c.1,0,1.1,1.6,1.1,1.6h0Z"/>
  <path id="ID-BE" class="st0" d="M118.5,174.6l.2.6.8.5v.7c.1,0,1,.5,1,.5v.3c.1,0,.6.1.6.1l.3,1.2.4.6h.6c0,.1.5.6.5.6l1.2-.4,1,.2.6.6.3.7v1.2c-.1,0,.1.1.1.1l-.2.5,1.7,1.5h.6c0,.1.2.4.2.4l.8-.6h.9s.9-.6.9-.6h.2c0,.1,0,.4,0,.4l.3.5h.3c0-.1.6.1.6.1l.6-.2h-.2c0,.1,0,.7,0,.7l.2.2.8-.3h.8c0,0,.2.5.2.5l-.2.4v.8s-.1.9-.1.9h0c0,.1-.3.2-.3.2l-.3.7-.7.7h-.2c0,0-.4-.7-.4-.7l-.5-.6-.5-.3h-.2s0,1.5,0,1.5l-.5.3-.6.8v1.1c-.1,0-1.4.5-1.4.5l-.2.4-.5.2.7.2.4.4.2.4.9.5.9,1.1.7.4.8.2.6-.3.4.2.3.5h.2c0,.1,1.3.2,1.3.2h.9c0-.1.3.1.3.1h.4c0,0,.5,1.4.5,1.4l.5.7v1.6s1.9.3,1.9.3l.5.6.7.4h.7s.6.2.6.2h.4c0,0,.3.5.3.5l.6.3,1-.4.6.2.3.6v.6s-.6.5-.6.5l-.3.5,1.1,1-.7.6h.8s.6.5.6.5l.3.4.2.9-.4.5h.4c0,0,.6.2.6.2h.4s.4.6.4.6v.3h-.2c0,0-.1.2-.1.2h-.8c0,0-.1.5-.1.5l-.5.4h-.4c0,0-.6.6-.6.6h-.3c0,0-.2.6-.2.6h-.8c0-.1-.5-.7-.5-.7l-.5-.2-.9-.2-.3.2h-.3c0-.1,0-.4,0-.4l.2-.2-.3-.4-.5-.4h-.3s-.3.3-.3.3l-.4-.3v-.2c0,0,.2-.3.2-.3l-1.6-1.7-3.1-2.1-2.6-1v-.2c0,0-.5-.8-.5-.8l-1-.7v-.3c-.1,0-3.7-2.7-3.7-2.7l-.8-.7-4.6-3.3-.2-.2v-1.1s.4-.1.4-.1v-.3s-.8-1.7-.8-1.7l-.3-1.6-2.2-1.8-2-1.2-1.2-.5v-.3c0,0-5.5-4-5.5-4l-1.5-1.9v-.2c0,0-.1-.5-.1-.5l-.4-.3-.2-.7-.3-.2-1.2-1.8-1.2-2.9-3.2-1.8-1.1-1.6-.8-.8h0l1.6-1.1.4-.4,1.1-.4.7-.6.8-1h0s4.7,2.9,4.7,2.9l-.3,2h.2c0,.1.3-.4.3-.4h.4c0,0,.3.1.3.1l.6-.2v-.3c.1,0,.5,0,.5,0l.4.7,1.5,1.6.4.2.2.4h.3c0,0,.5.6.5.6l.7.2,1.3-.2.8.5h.5c0,.1,0,.1,0,.1Z"/>
  <path id="ID-BT" class="st0" d="M199.2,231.9l-.6.2v1.1s.6.3.6.3v.7s.4,0,.4,0l.2.7.4.8h0c0,.1-.2.8-.2.8h-2.9s-.3-.3-.3-.3l-1-.3h-.1c0,0,.3.2.3.2v.2s-.5,0-.5,0l-.2-.6h-.3c0-.1-.7.5-.7.5l.4,1.4-.2.3h-.6c0,0-.1,1.1-.1,1.1l.6,1.2v1.7c0,0,0,.3,0,.3h.2l.4.5h.2s.6.6.6.6l-.4.2v.3s-1,.4-1,.4v.7c0,0-.7.7-.7.7v.4c.1,0,0,.2,0,.2l.2.8h0l-.5.2h-1c0,0,0-.2,0-.2h-.7s0-.3,0-.3h-.4c0-.1,0-.5,0-.5l-.9-.4h-.6s-.5-.4-.5-.4h-.5c0-.1-.7-.9-.7-.9l-.5-.2h-1.4c0-.1-2.9.5-2.9.5l-1.5-.2-2.1.3-.4.3-.7-.2h-.3c0,.1-.6-.4-.6-.4h-.3c0,0-.1.3-.1.3h-.2s0-.2,0-.2l-.6-.4-1.1-.2h-.3c0,0-.2.5-.2.5l-.3.3h-.4c0-.1-.1-1.1-.1-1.1l-.2-.3h-.2v-.3c0,0,.9,0,.9,0l.3-.4.8-.6v-.4c-.1,0,.7-.4.7-.4l.6,1.3h-.2c0,0,0,.3,0,.3l.5.3.3.5v.4c0,0,.4.2.4.2h.2s.5-.7.5-.7v-1c.1,0,1.2-.9,1.2-.9v-.4c0,0,.4-.1.4-.1l.3-.4.2-.7v-.8c0,0,.4-.9.4-.9l.4-.3v.5c.1,0,0,.2,0,.2l.4.3h.3c0,0,1-.2,1-.2l.7-1,.2-.6v-3.1c0,0,.7-2.2.7-2.2l.4-.2v-.6s.7-.5.7-.5l.3-.4.8-.6.2-.9h-.3c0,0,.9-.8.9-.8h.7c0-.1.6.5.6.5v1.3s1,.6,1,.6h.3s.8-.3.8-.3l.3-.3v-.5c.1,0,.3-.2.3-.2l.9.3v.2c.1,0,.4,0,.4,0l.4-.4.3.3h.3s0,.2,0,.2l.2.5.5.3h.4c0,0,.7.2.7.2l.7-.5.5.3.9-.2.2-.2.4.2h.5c0-.1.5.3.5.3h0c0,.1.3.8.3.8Z"/>
  <path id="ID-GO" class="st0" d="M466.8,109.6l.6.2h2.4c0,0,1.7.1,1.7.1l3.4,1,.2.3,3,1.8,1.1-.7.9-1.2,2.5-.4h0l.2.8.5.4.9.2.7.7v.5s.2.8.2.8l.6.5,1.2.9,2,.3.5.6.3.8v1.1c-.1,0,0,1,0,1l-.8,1.4-.3,1h-2.1s-1.5-.4-1.5-.4l-1.3-1.2-.8-1.2-1-.9-.5.4h-1.4c0,.1-8.4-.2-8.4-.2h-1.8l-3.1.3h-2.4c0,0-.5,0-.5,0l-.6.5-1.6.3h-1.8c0,0-1.5-1.6-1.5-1.6l-2.9-.3h-.2c0,.1-.2.8-.2.8l-.3.2-2.8.3h0l.3-.5-.2-1.5h-.7s-1.1-.4-1.1-.4l-.5-.8-.6-.3-.3-.4.3-.2v-1.1c0,0,.4-.3.4-.3l1.1-.4,1,.4h.5c0,0,0-1.1,0-1.1l.4-.4.9.5h1.3c0,0,.5-.4.5-.4h1.5s2.1-1,2.1-1l1.1-.3.8-.6h.9c0-.1.5.7.5.7l.5.5.4.2.3-.3v-.7h.5l.5-.6h.3s2.3-.8,2.3-.8Z"/>
  <path id="ID-JA" class="st0" d="M160.6,155.6l-1.3-.5h-.5c0,.1-.3.3-.3.3l-.2.3v.8c.1,0-.2.4-.2.4l-1,.3h-1c0-.1-.9.3-.9.3l-1.4.3-1.1-.3h-.8l-.5.2-1-.5h-.4c0,0-.7.3-.7.3l-.3.5h-1.7c0,0-2.2.9-2.2.9l-1.1,1v.8l-.2.8v.3c0,0-.1.4-.1.4v1.3l.6.5-.7.5-1.1.3v.4c0,0,.1,1.6.1,1.6l-.2.2v.8c.1,0,0,0,0,0l-.2-.4h-.5c0-.1-.4-.8-.4-.8l-.8-.4-.2-.4-.6-.6v-.8c0,0-.4-.4-.4-.4h-.5c0,0-.3.2-.3.2l-.2.4h-.3c0,.1-.2.4-.2.4l-.2.6.7.7.2.7-1.5.6-1.1-.4v-.2c0,0-.3,0-.3,0l-.3.5-1.9-.3-.7-.3-.6.8.6,1-.5.4-1.1,1.8-.4.4h-.3s-.3-.1-.3-.1l-.9.8-.8.3-.2.2v.3l-.6.6-.5-.2h-.4c0,0-.6.5-.6.5v-.2h-.8l-.7-.2-.6-.6-.5-.3-.2.2h-.3l-.8-.5-.6.2v.7c0,0-.5.4-.5.4h-.8c0,.1-.2.3-.2.3l-.6.2-.4.7h0l-.6-.2h-.5c0-.1-.8-.6-.8-.6l-1.3.2-.7-.2-.5-.5h-.3c0,0-.2-.4-.2-.4l-.4-.2-1.5-1.6-.4-.7h-.4s-.1.2-.1.2l-.6.2-.3-.2h-.4c0,0-.3.6-.3.6h-.2c0-.1.3-2.1.3-2.1l-4.7-3h0l.2-.5h0l-.2-1.6-.6-1.7-.4-.7-.7-.3-.3-.4-.2-.5-.5-.5-.2-.4-.2-3.6h.2s.5.3.5.3l.2-.4h.2s.7.7.7.7l.6-.4h1.1s.5-.2.5-.2h.6s.6-.1.6-.1l.4.4,1-.3,1.2-1.8,2-1.2.6-1.1v-.2l-.4-.4v-.2l.4-.5-.4-1.6.6-.6h.6s.3-.2.3-.2h.6c0-.1.8-1.2.8-1.2l.3-.9h-.1c0,0-.3.2-.3.2l-.5-.4v-.8c.1,0,0-.1,0-.1v-1h0s.6,0,.6,0v-.3s.8-.2.8-.2l.2-.6.6-.3.2.2v-.4c.1,0,.6-.3.6-.3h.4c0,0,.4.4.4.4l.4-.2.9.4.4-.3h.4s.4.4.4.4v.3h.2c0,.1.4.1.4.1l.9-.5h.6s.3.7.3.7l1,.5v.6s1.2.1,1.2.1l.5.8h.8s.8.4.8.4h.7c0,0,.6.3.6.3h.3c0,0,.5-.7.5-.7h.7c0,0,.5-.9.5-.9l.5-.4v-.4c.1,0,2.2-1.5,2.2-1.5l.9-1,.9-1.4h1.2c0,0,.9-.1.9-.1l3.6.6.4.3.9-.5h1.2c0-.1.4.3.4.3l.8.4.9,1.1.9.7,1,.4.6.5,1.1.3.5.4.8-.4h0c0,.1,1.2-.1,1.2-.1l2.6.8,1.9.7,2.2-.8h.4c0,0,.8,1.8.8,1.8l-.3,1.4.2.8.7,1.2v1.1c.1,0-.2,1.9-.2,1.9l.4,1.9.5.9Z"/>
  <path id="ID-JB" class="st0" d="M205.7,229.3l.8.8h.4c0,0,2.2-.4,2.2-.4l.9.3.9.9,1.2,2.1,1.6.6h1.1c0,.1.9,1.1.9,1.1l.4-.3h.2c0,.1.5.1.5.1l1.3-.8h.6s.1.4.1.4l.6-.3v.3c.1,0-.1,0-.1,0v.5c0,0,1.2.4,1.2.4l1.4.8,1.6.5,1-.6.4-.5v-.4c0,0-.4-.3-.4-.3h.4c0,0,.3.3.3.3h1.3s.6.4.6.4v-.5c0,0,.2,0,.2,0l.3.4.2.5v.2c-.1,0,.2.8.2.8l1.3,1.5,1.4.8v1.2c.1,0,0,.6,0,.6l.4,1.9.6,1.1h.6c0,.1.3-.2.3-.2l.5.3v.6c0,0,1.2.3,1.2.3l.9-.5v-.4c0,0-.3-.1-.3-.1l.2-.3h.5s0,1.4,0,1.4l-.6.9h-.2c0,.1-.4.7-.4.7l.2.5v.6c0,0,.6.4.6.4v.4s-.3.2-.3.2v.3c.1,0,0,.4,0,.4v.4c0,0-.2.3-.2.3h-.7c0,0-.5.6-.5.6h-.6c0,0-.3-.2-.3-.2h-.3s-1,.5-1,.5v.6s.3.3.3.3v.5l-.5.8v.8c0,0,.3,0,.3,0l.2.2h1.2c0,0,.5.4.5.4v.5c.1,0,.7.6.7.6v.5c-.1,0,0,.4,0,.4l.3.4.3.9v.5c0,0-.4.4-.4.4l.7.7.5.2h0l-.7.4-.5-.3h-.7c0,0-.5.2-.5.2h0c0,.1.3.5.3.5h-.1c0,.1-.4,0-.4,0v-.5c-.1,0-1.2,0-1.2,0l-.9.2-.4.4v1.1c0,0-.5.3-.5.3l-.6.2h-1.7l-4.5-.8-1.5-.5-1.5-.2h-1c0,0-.2,0-.2,0v-.5c-.1,0-.6-.3-.6-.3l-.5-.2-1.5-.2-.3-.7-1.2-.9-2.2-.8-.4-.3-1.3-.2-2.6-.2-2-.5-9.5-.7-.9-.2-.5-.5-.9-.3-.6.2v-.4s-.5-1.1-.5-1.1v-.8s.6-.9.6-.9l.9-.2-.2-.5v-.4c.1,0,.6-.4.6-.4l.4-.2.6-.9v-.9c0,0-.6-.5-.6-.5h-1.2c0-.1-.5,0-.5,0l-.3.3h0l-.2-.8.2-.2v-.4c-.1,0,.5-.7.5-.7v-.7c0,0,1-.4,1-.4v-.3s.4-.2.4-.2l-.6-.7h-.2s-.4-.4-.4-.4h-.2v-.3c-.1,0,0-1.7,0-1.7l-.6-1.2v-1c.1,0,.7,0,.7,0l.2-.3-.4-1.4.7-.6h.3c0,.1.2.8.2.8h.5s0-.3,0-.3l-.3-.2h.1c0,0,1,.2,1,.2l.3.4h2.9s.2-.6.2-.6h0c0-.1.5-.2.5-.2l-.2.7h.1c0,.1.9-.1.9-.1l.9.5h.2c0,0,.2-1,.2-1l-.2-.4v-.6c0,0,.6-.2.6-.2l.4-.9v-2h.4c0,0,.2-.3.2-.3l-.2-.4.4-.3-.2-.2h-.2c0,0,0-.2,0-.2l.3-.3v-.7c.1,0,0-.2,0-.2h-.3c0,0,0,0,0,0l.6-.4,1.3.4Z"/>
  <path id="ID-JI" class="st0" d="M313,272.8h.6c0,.1.9,0,.9,0l.5.3-.2.4-1,.2h-1s-.5-.1-.5-.1v-.5s.4-.1.4-.1v-.3c0,0,.2,0,.2,0h0ZM355.7,249.6l.5.2v.3c0,0,.2.2.2.2h.5c0,0,.1.3.1.3h.4v-.5l.4-.2v-.2s.3-.1.3-.1l-.3,1.6-.3.2h-.8c0,0-1.3-.6-1.3-.6l-.2-.3.3-.4-.2-.4v-.2c.1,0,.3.4.3.4h0ZM331.9,250.8h-.3c0,0-.7-.1-.7-.1l-.8-.6-.3-.6.2-.6.9-.3.5.3.7,1.5-.2.3h0ZM353.5,247.1l.6.3.2.4-.5-.2h-.6c0,.1-.5,0-.5,0v-.3c0,0-.3,0-.3,0v-.3c-.1,0,.2-.3.2-.3l1.1.5h0ZM325.1,245.7l1.8.9.3.8h-.6s-.4.3-.4.3l-.5.2h-1.2c0,0-.3.4-.3.4l-.5-.2h-.2c0,.1.6.4.6.4l.4.5h1.4c0,0,.2.7.2.7l-1.6-.2-.6-.5v-.3c0,0-.3-.2-.3-.2l-.6.4v.3c-.1,0-.2.2-.2.2h.2c0,.1.1.4.1.4v.2c-.1,0-3.7-.4-3.7-.4l-.6.4h-.2c0,0-.6,0-.6,0l-.4.5-.4,1.2-.7.4-.2-.2h.1c0,0,0-.3,0-.3h-.8c0-.1-3.1-.3-3.1-.3l-.3.2h-1.3s-.3-.5-.3-.5h-.3c0,0,0-.2,0-.2l.2-.3-.3-.3-.4.4.2.4.4.3h-.9c0,0-3.5-.8-3.5-.8l-.5-.3h-1.5c0,0-.4.2-.4.2h-.7s-.5-.3-.5-.3l.2-.9h-.3l-.3-.7.2-.5h.6c0,.1,1.2-.9,1.2-.9l.6-.9v-.3s1-.4,1-.4h1.6s.7-.2.7-.2l1.6.2h5.6c0,0,1.2.1,1.2.1l3.5-.2h1.1c0,0,2.6-.3,2.6-.3l1.5.3h0ZM347.4,244.7l2.2.2,1,.3,1.5.8.2.4-.4.6-.4-.3h-.5s-.4-.4-.4-.4l-1,.2-.3-.4h-.4c0,0-.1.2-.1.2h-.5c0,0,0,.2,0,.2l.7.3.4.6h-1.2c0,.1-.3-.2-.3-.2h-.2s-.2.1-.2.1v.4s-.2,0-.2,0l-.7-.6.5-.5h-.3c0,.1-.8,0-.8,0v-.3c-.1,0,0-.6,0-.6h.5c0,0,.2-.4.2-.4v-.2s-.4-.2-.4-.2h0c0-.1.3-.3.3-.3h.7q0,0,0,0ZM286,243.7h.5c0,0,.8.5.8.5h.6s.9-.2.9-.2l.7-.4h.4c0,0,1.1,1.9,1.1,1.9l.4.3h.9c0,.1.9,0,.9,0l1-.4h.5c0,.1,1.3-.1,1.3-.1l1.2.2h.2c0-.1.5,0,.5,0l.6.4h.7c0,.1.4-.3.4-.3l-.2-.3.3-.2v-.3s.4.3.4.3h.1c0,0,0,.2,0,.2l.3.4h.3s.2.3.2.3v.3c-.1,0-.4,0-.4,0v.3s.3,1,.3,1l.6.4v.6c0,0-.3.4-.3.4v.8c-.1,0,.6.7.6.7v.4s-.2.2-.2.2v.3l.3.2h.6s.2-.4.2-.4h.8c0,0,.4.2.4.2l.4.7.7.6v.5s-.2.3-.2.3h.2c0,.1-.2,1.3-.2,1.3v1.3c0,0-.3,0-.3,0l.3.6h.5c0,.1.1.4.1.4v.9c-.1,0,0,0,0,0l.2.5.8.3.2-.2.4.4.5.2.4-.2h.5c0,.1.7.9.7.9l1.4.7h.7c0-.1.7,0,.7,0l.6.7.4-.2h.3c0,0,.5-.1.5-.1l.4-.4h.6c0,0,1.6-.7,1.6-.7l.8.2h.5c0,0,1.5.4,1.5.4l.8-.4.7.5h.2s.5-.2.5-.2l.4-.5.6-.3,1.3.3,1.1-1.1.9-.4.6.4.6,1.2h.2c0,0,1.6.2,1.6.2l.6-.3.9.8,1.5.3,1,.6.5.6v.9l-.8.7.2,1.3v1.1s-.4.8-.4.8v.8c0,0-.4.7-.4.7v.7c.1,0-.3.8-.3.8l-.4,2.2v.6s.4.8.4.8l-.2.7.2.2h.2c0,0,.2-.9.2-.9v-.5c0,0,0,0,0,0l.2.2v.5s.2.5.2.5v.6c-.1,0,.2,1,.2,1l.5.6.5-.4.6.6,1,.2.6.9-.2.8-.3.3-.7.2-1.6-.5h-1.1s-.5,0-.5,0v-.2c0,0,.4-.2.4-.2v-.3c.1,0,0-.6,0-.6l-.6-.6-1.2-.5h-.5s-.1.2-.1.2v.5s-.1.1-.1.1l-1.9-.5-1.1.3-.3-.2v-.5h-.3c0-.1-.3,0-.3,0v.2s-.6,0-.6,0l-.2-.2h.4c0-.1,0-.4,0-.4l-.3-.3h-.3l-.3.3-.6-.3h-.8c0-.1,0-.6,0-.6l-.3.3h-.2s0-.9,0-.9h-.2c0-.1-.7.1-.7.1l-.2.3h-.2c0,0-.2,0-.2,0h-.1c0,.1,0,0,0,0l.2-.4v-.2c-.1,0-.5.3-.5.3l-.2-.2h-.2c0,.1-.8-.8-.8-.8l-.4-.2h-.4c0,0,0,0,0,0h-.2c0-.1-.3,0-.3,0h-.5c0,0-.8-.4-.8-.4v-.4s-.4-.2-.4-.2h-.6c0,0-.6.4-.6.4l-.6-1.1-.3-.2-.8-.5-.9-.2h-.9c0,0-2.7.4-2.7.4l-1,.6-.3.6-.5.4-3.6.5v.5c0,0-.3.1-.3.1l-1.2-.6-1.1-.3-2-.2-.5-.3h-.5l-.8-.6-.8-.2-.6.3h-.6c0,0-.6-.4-.6-.4h-2.5c0,0-.5-.2-.5-.2l-.3-.3-.5-.2h-.6c0-.1-.1,0-.1,0v.2c.1,0-.7,0-.7,0l-.7-.6h-.2s-.1.2-.1.2l-.6-.2v-.2s-.5.1-.5.1v1.1c0,0-.2.2-.2.2h-.3s.1-.4.1-.4l-.2-.4h-.3s0,.2,0,.2l.2.4h-.4s-.1.2-.1.2l.4.3v.2c0,0-.4.1-.4.1h-.3s-.2-.3-.2-.3h-.8c0,0,.1-.3.1-.3v-.3h-.3c0,.1-.3,0-.3,0v.2c-.1,0-.4,0-.4,0v-.4s-.3,0-.3,0l-.2.5-1.3-.3-.2-.8-.3-.2-.7.4-2.5-.5-.5.4h-1.2c0,.1-.8-.5-.8-.5v-.3s-.3,0-.3,0v.5c0,0-1.1.1-1.1.1l-2-.6h0v-.8c-.1,0,.1-.9.1-.9l.7-.9,1.3.3.8-.6.5.3.4-.7v-1.1c0,0,.2-.2.2-.2v-.3s.1-.2.1-.2l.6-.2v.3c0,0,.5,0,.5,0l.3.3h.3c0,0,.6-.8.6-.8l.2-.7.3-.2-.6-1.3v-.6c.1,0-.9,0-.9,0l-.8-.7v-.4c.1,0,0-.8,0-.8l.2-.6-.6-.4-.2-.8v-.6s-.2-.3-.2-.3l-.3-1,.5-1v-.5c0,0,0-.4,0-.4h-.2c0-.1.2-.8.2-.8h0c0-.1.3,0,.3,0h.4c0-.1,0-.3,0-.3h.2s.5.6.5.6l1.2.4.7.5,1.1.3.2.3h.4c0,.1,0-.1,0-.1h-.3c0-.1.2-.7.2-.7h-.5l.4-.9.2-.2h.1c0,.1.2,0,.2,0h.1c0,0,1-.4,1-.4l.7-.7.6-1.3v-.5c0,0,.1-.3.1-.3l-.2-.9.2-.4-1-.7.3-.5.4-.2.2-1.4h.7c0,0,.1-.3.1-.3v-.6s.1-.2.1-.2h.2c0,.1.2-.2.2-.2h0l.4.3h.4s0,0,0,0ZM302.7,225.7h.4c0,.1,0,.4,0,.4l.3.5-.2.8-.8.4h-.6c0,0-.2-.2-.2-.2l-.4.2h-.5l-.3-.5.3-.9h.3c0,0,0-.4,0-.4l.4-.2h.3c0-.1.4,0,.4,0l.2-.3.3.3h0Z"/>
  <path id="ID-JK" d="M174,239.5l-.3.5.2.7-.3.6-.6.2-.4.6-.2-.3.4-.4v-.4s-.3-.3-.3-.3v-.4s-.3,0-.3,0l-.5.5v.3c0,0-.3-.2-.3-.2l.3-.6,1-.8h.5c0,.1,0-.1,0-.1h.5s.3-.1.3-.1h.2q0,.1,0,.1ZM199.6,232.1l1.8.3.7-.4h1.4c0,0,0,1.9,0,1.9l-.4.9-.6.2v.6c0,0,.3.4.3.4l-.2.9h-.2c0,0-.9-.4-.9-.4l-.9.2v-.2c-.1,0,.1-.7.1-.7h-.5c0,0-.4-.7-.4-.7l-.2-.7h-.4c0,0,0-.7,0-.7l-.6-.3v-1.1s.6-.3.6-.3h0l.4.2h0Z"/>
  <path id="ID-JT" class="st0" d="M285.2,243.4l-.2.3h-.2c0-.1-.2,0-.2,0v.6s-.1.2-.1.2h-.7c0,0-.2,1.4-.2,1.4l-.4.2-.3.5,1,.7-.2.4.2.9-.2.3v.5c0,0-.6,1.3-.6,1.3l-.7.7-1,.5h-.1c0,0-.2,0-.2,0h-.1c0-.1-.2,0-.2,0l-.4.9h.5l-.2.6h.3c0,.1,0,.4,0,.4h-.4c0-.1-.2-.4-.2-.4l-1.1-.3-.7-.5-1.2-.4-.5-.6h-.2s0,.1,0,.1h-.4c0,.1-.3,0-.3,0h0c0,.1-.2.8-.2.8h.2c0,.1-.1.5-.1.5v.5c0,0-.4,1-.4,1l.3,1,.3.3v.6s.2.8.2.8l.6.4-.2.6v.8c0,0,0,.4,0,.4l.8.7h1s-.1.5-.1.5l.6,1.3-.3.2-.2.7-.6.7h-.3c0,0-.3-.2-.3-.2h-.4c0,0,0-.2,0-.2l-.6.2-.2.2v.3s-.2.2-.2.2v1c0,0-.4.7-.4.7l-.5-.3-.8.6-1.3-.3-.7.9-.2.9v.8h.1l-1.2-.3h0v-.5s0,0,0,0l-.2.2h0c0-.1.2-.7.2-.7h-.2s-.3.4-.3.4l-.2-.2v-.8s-.5-1.6-.5-1.6l.2-.5v-1.1s.3-.8.3-.8v-.9s-.2-.2-.2-.2l-.2.3-.4-.5h-.3c0-.1-.2,0-.2,0h-.4s-.2-.3-.2-.3l-.2.2h-.1c0-.1-1.1,0-1.1,0l-.2-.3h-.2c0,0-.4.1-.4.1l-.4-.4h-.3c0,0-.8-4-.8-4l-2.4,1.9-.6.8h-.3c0-.1,0-.7,0-.7l-.2-.2h-.3c0,.1-1.3,0-1.3,0l-.6.2-.2.4.3.3v.9c-.1,0-.5.5-.5.5h-.3c0,.1-.2.5-.2.5l-.4.2-.3,1.3h-.6s-1.7-.6-1.7-.6l-3.6-1-3.3-.5-.5-.2-1.2.3-.5-.3.2-.5-1.9-.4-3.1-.2h-.8c0,.1-.6.5-.6.5l-.2.3v.4c0,0,.1.2.1.2h.3c0,0,.1,0,.1,0l-.2.2-3.7-.8h-.5c0,0-.2-.2-.2-.2l.2-.3h-.2c0,0,.3-.4.3-.4h.5c0,0,.2-.3.2-.3h.4c0-.1-.2-.2-.2-.2l-.8.3h0l-.5-.2-.7-.7.3-.4v-.5c0,0-.3-.9-.3-.9l-.3-.4v-.4c-.1,0,0-.5,0-.5l-.6-.6v-.5c-.1,0-.6-.5-.6-.5h-1.2c0,0-.2-.2-.2-.2h-.2s0-.8,0-.8l.5-.8v-.5l-.3-.3v-.6s1-.5,1-.5h.3s.3.3.3.3h.6c0,0,.5-.6.5-.6h.7c0,0,.3-.3.3-.3v-.4c0,0,.1-.4.1-.4v-.3c-.1,0,.2-.2.2-.2v-.4s-.6-.4-.6-.4v-.6c0,0-.1-.5-.1-.5l.4-.6h.2c0-.1.6-1,.6-1v-1.5h0v.2c.1,0,0,.3,0,.3h.3c0,0,.2.5.2.5l1.6.5.2-.4h.4s.7-.5.7-.5h.3c0,0,.3-.3.3-.3v.9c.1,0,.8.6.8.6h.9l.5.3,1.2.2h.8s.6-.2.6-.2h.4c0,0,1-.2,1-.2l1-.6.7-.6,1,1,1.5.2,3.8,1.2h.9c0,0,.6,0,.6,0h.8c0,0,2.3-.8,2.3-.8l.4-.3v-.2c0,0,.9.2.9.2l.5.8.9.3.3.3,1,.3,1.1-.2v.2c.1,0,.7-.2.7-.2v-.4s.5-.7.5-.7l.2-.7.6-.5.4-.8h-.5s-.1-.3-.1-.3h.4c0,0-.2-.4-.2-.4h.4c0,0,.3,0,.3,0l.4-.3.6-.8v-.8c0,0,.2,0,.2,0v-.8c0,0,0-.2,0-.2l.5-.6-.3-.3h.3c0-.1.7-1,.7-1l1.1-.4h.5l.4-.3h1.2c0-.1.9,0,.9,0l.5-.2,1.1.4,1,3.1.6.9,1,.2.7.4,2.3.2,1.4-.6.2-.5.5-.3.3.2h.4c0,0,.7.2.7.2l2.1,1.9Z"/>
  <path id="ID-KB" class="st0" d="M236,155.8h-.4c0,0-.6-1.5-.6-1.5v-.3c.1,0,1.7-.5,1.7-.5h.6c0,.1.6.8.6.8v.3s-.3.6-.3.6l-1.6.6h0ZM247.8,144.2h.5c0,0,.4-.3.4-.3h.6s.5.5.5.5h.4c0,.1.3,0,.3,0l.3-.4.5.2.3.5.2.9v.5c0,0,.2.2.2.2v.2l-5,2.9-1.3-.4-.4-.4.6-.6.2-.5.4-2.2v-.4s.7-1.1.7-1.1l.6.3h0ZM249.8,91.5l-.5,1.4-.4.2-.3.8h-.6c0,0,0,.6,0,.6l.2.7.4.3.4.6,1.2.3v.3c.1,0-.3,2.1-.3,2.1l.3.7,1.8,1.8.4.2.8,1.3h1.3c0,0,.5.2.5.2l.2.3.2,1.4,1.5.7.4.9.4.3h.6c0,0,.7,0,.7,0l.5.7v.5c.1,0,.6.4.6.4l.4.7.3,1h1l1,.2.9,1.4.4.3,1.2.4h.7c0,0,.5,0,.5,0l.4-.7.5.4h.5s.4-.3.4-.3l.8-.2,1-.6h.7c0-.1.6-.7.6-.7l.3-.6,3.9-.5,2-.6.3.3,1.8.6.5.3h.5s.7-.3.7-.3h.8c0,.1.7,1.3.7,1.3h.2s.1-.5.1-.5h.5c0,0,1.1-.9,1.1-.9h.3s1,.5,1,.5l.6-.2,1.7.3.3-.8,1.4-1.4,3.2-.2v-.7s.2-.6.2-.6v-1.5c.1,0,1-.8,1-.8v-.7s-.4-.7-.4-.7l.5-.6h.4l1.3-.8,1.6-.3.5-.3v-.3c0,0,1.1-.4,1.1-.4l2.9.4h1.6c0-.1.5.3.5.3h.4s.6-.3.6-.3l.4-.5h.2c0,0,.8.2.8.2h.9c0,0,.6,0,.6,0l.5.3v.4c.1,0,0,0,0,0l-.5,1-.5.2-.3.3v.4c-.1,0,.6,0,.6,0l1.4-.4h.4c0,0,.4.7.4.7l.8.2,1.6-.2.8.2.7.5.2.3.6.4.3.4h.4s.3-.3.3-.3l.6-.2h.8c0,0,.7.2.7.2l.8,1.3h.3c0,0,.3,0,.3,0l.4-.2.4-.4,1.9-.8.3-.8v-.2c-.1,0,0-.2,0-.2l1.9-.8.4-.4,3-.3,1,.7.2.3h0s-.8.4-.8.4v1.7c-.1,0,0,.2,0,.2l-.3.4v.7l-.2.7-.3.3h-.5c0,0-.5.3-.5.3l-.3-.2h-.7c0,0-.5.5-.5.5v.7c0,0-.4.2-.4.2l-.7.2v.4c0,0,.2.3.2.3v.4c.1,0,0,.5,0,.5l-.5.5v.3c0,0,.2.7.2.7l.6.5v.3l-.5.6v.8c0,0-.1.4-.1.4l-.7.3-.2.5v.2h.1l-.5.3-.2.7-.4.2-.2.4-.4.2-.2.4h-.4l-.7.4-.3,1.1-1.3.8-.2.3-1,.8v.2s-.6.4-.6.4l-.9.6-1.4-.3-.7.2-.6.4v.2s1,1,1,1l1.5.8v1.3c-.1,0,0,.3,0,.3l.4.2-.3.4-.2.8h.4c0,0,0,.3,0,.3l-.4.8-.4.3.3.2v.3c0,0-.4,0-.4,0l-.3.6-.6.5-.9.2-.4.6-.5.4-.2.6-.3.2.8.7.2.8-.7.8-.2.5h-.1c0,0-.1,0-.1,0l-.3-.5h-.5s-.1-.4-.1-.4h-.4c0,.1-.3.6-.3.6h-.4l-.3.2h-1.3c0-.1-.3.2-.3.2l-1.4.4-.7.6h-.7c0,.1-.6,0-.6,0h-.6c0,.1,0,1,0,1h-.7s-.2.4-.2.4h-.9s-.6.4-.6.4v.2h-.9c0,0-.1.3-.1.3l-.9-.2v.5c0,0-.3.2-.3.2l-.4-.3v-.6s-.4-.1-.4-.1l-.5.4-.9.3-.4-.2-.4.4-.4-.5-.6-1.2-.3-.3h-.5s-.8,1.1-.8,1.1l.2.7h-.1c0,0-.4,0-.4,0l-.8-.3h-1.1c0-.1-.2,0-.2,0l.3,1.1v.3c0,0-1.3.3-1.3.3h-.4c0-.1-.5-.7-.5-.7v.9c-.1,0,.1.8.1.8h-.7c0-.1-.1,0-.1,0l-.2.6-.5.3h-1c0,0-.8.2-.8.2l-.2.3-.9.6h-.6s-.3.4-.3.4l.2.7-.5.5h-.5c0,.1-.3.7-.3.7l.3.6-.3.5.3.3v.3c-.1,0-1.3.2-1.3.2l-.3.3h-1.1s-.2.2-.2.2v.5h-.4l-.4.8-.6.3-.2.6-.4.5h-.2s0,.3,0,.3l-1.1-.2v.5c-.1,0-.5-.1-.5-.1v.8c.1,0,0,.6,0,.6h-.3c0-.1,0-.6,0-.6l-.3-.2-.8.5.3.4v.4c0,0-.7.2-.7.2l-.4-.4h-.5c0,.1-.3.4-.3.4l-.5-.4-.4.5-.9.2-.3.4-.5.4v.8s.5.1.5.1l.2.4.3.2h.4c0-.1.2-.2.2-.2v-.4c.1,0,.5-.2.5-.2l.3.2.2.5v1.2c.1,0,0,.4,0,.4l-.4.3v.4c-.1,0-.1.6-.1.6l.3.4v.4s-.4.4-.4.4v.4c.1,0,.5.2.5.2h.5c0-.1.9,0,.9,0h0c0,.1-.1.6-.1.6v.4c0,0-.6.6-.6.6l.7,1.3v.2s-.2.2-.2.2v.3s-.6.7-.6.7l.7,1.1.5,1.8v1.3c0,0,.6,2.1.6,2.1l-.3.8.5.3h.3s.1.4.1.4l-.5.9-.9.4-1.5.4v.6c-.1,0-.8.5-.8.5l-1.2.2-.8.5-1.2.4-.4.3-.3.9h0l-1.3.8h-.3c0-.1,0-.4,0-.4l-.2-.7v-.8c0,0-.3-.9-.3-.9l-.5-.6h-.6c0,0-1.1.3-1.1.3l-1.3.6-2,1.6-.2-.3h-.5c0-.1-.2-1-.2-1l-.3-.6.5-1.1v-.6c.1,0-.2-.5-.2-.5l-.4-.2-.2-1.7-1.3-.4.7-.8.2-1.3-1-3.8-.7-.9v-1.1s.5-1.5.5-1.5v-.7s-.7-1.8-.7-1.8l-.7-.5-1.7-.7-.8-.8.2-.9,1.3-.8.7-1.2.6-3.3v-1.5s-.2-.7-.2-.7l-.2-.4-.7-.5-.8-.2-.9-1.1.5-1.4-1.9-.6-1.2-1.6-.7-.4-.7.5-1.1-.8-.4-.8-.3-.3-2-.6-.3-.3h-.5c0,.1.2,1,.2,1l-.3.4h-.3c0,0-1.7-.5-1.7-.5l-.6-.6-.5-.9.2-2.6h.5c0,.1.4.5.4.5l1.1.3h.8s1.1.7,1.1.7v-.5s-.9-.7-.9-.7h-.9s-.2-.5-.2-.5l.3-.5v-.7s-1.4,0-1.4,0h-.4c0,.1-1.7-.5-1.7-.5l-.7-.8-.4-1.9-1-2.6.3-.6h.6c0-.1-.2-.9-.2-.9l1.1-1.8.4-1.6-.2-1.2-.8-1.9-1.1-1.2-.8-.2h-1.2c0,0-.3-.3-.3-.3v-.6s.5-.9.5-.9v-.5l-.7-.8.5-2.1-.3-.9-.7-.8.2-.9-.8-.9v-.4c.1,0,.8-.6.8-.6h.5c0,0,.7-.7.7-.7l.4-1.1-.4-1.4-.5-.4-.5-1.4v-.2c.1,0,.9.2.9.2v-.8l.6-1.1.7-.7.2-.8-.2-1.3v-.9c.1,0,.5-.7.5-.7l.7-.7,2.2-1.3.5-.6v-.4l.5-1.1.7-1v-1.1c0,0-.2-.6-.2-.6v-.3c0,0,.5-.2.5-.2h1.4s.3-.5.3-.5l.5-.2h1.7s1.2-1.4,1.2-1.4h0ZM235.8,78.1h-.2c0,0-1-.7-1-.7l.9-.8.3-1.1.5-.2h.3c0,0,.2.4.2.4l-.2,1.5-.8.8ZM182.2,78.3h-.4s-.3-.2-.3-.2l-.3-2.7v-.9c.1,0,.3,0,.3,0l2.6,1.4-.6,1.3-.9.9s-.4.2-.4.2ZM226.7,63.9l-2.3.5-1.5-.8.6-.8,1.2-.9-.6-.4-1.8-.6-1-1.8-.2-1.1.6-.7.7-.2,2-2,1.2.3v.8c.1,0,.3.5.3.5l2.2,2.2.2,1.8-.2.8-1.4,2.6h0Z"/>
  <path id="ID-KI" class="st0" d="M393.8,84.7l1.4,1.6.7,1.2v.4s-.6.9-.6.9l-2.7,2.4-1-.4h-.3s.5.5.5.5l.2.7v2.2c0,0,0,.6,0,.6l.8.9,2.3,1.6,1.5,1.5,4.9,2.9.5,1.3,1.3.6h.6c0,0,.6,0,.6,0l3.1,2.7.4.9.8.9,1.2.5h.3s1.2.4,1.2.4l.2.2v.9c0,0-.5.8-.5.8l-.7.7-2.4,1.7-2-.8-3,.3-2.8-.2-3.1-.6-1.6-.7-.7-.7-.7-1.8-.7-.6-.8-.4h-.2c0,0,0,.5,0,.5l2.4,4.1v.7c0,0-.1.4-.1.4h-.4c0,0-.3,0-.3,0l-.8-.7h-.6c0,0-1.6.4-1.6.4l-1.2,1.2-.4.8v.9s-1.7,3.5-1.7,3.5l-.9.7-.8,1.7-.7,2.1-.2,1.2.4,1.2.5.4v.7c.1,0,0,.4,0,.4l-.6.7-.8,2.5v.5s.6,1.3.6,1.3l-.5,3.1,2.6-1.7h.5c0-.1.2,0,.2,0v.3c0,0-1,3.6-1,3.6l.8,1.8v.4s-.1.2-.1.2l-2.8,1.2h-2.1c0-.1-.7-.9-.7-.9l-.4.3v.8c-.1,0-2.1,2.4-2.1,2.4l-2,3.3-.4.3-1.4.6-1.8.3-1.3-3,.3-1.1v-.2c0,0-.3,0-.3,0l-.5,1.3v.5s.7.7.7.7l.6,1.3-.5,2-2.2.8-1.5,1.1v.2c-.1,0,0,.8,0,.8l.5.8v.5c-.1,0-.4.4-.4.4l-2.4.9-1.7.8-1.4.9v.3c.1,0,.6.3.6.3h.7c0-.1.6-.6.6-.6l.8-.2h.7c0,0,.4.3.4.3l.3,2.2v2.3s-.4.5-.4.5l-1.1.4-.2.3,1.3.3h.8l.4-.4.3.7v.3s1.4.4,1.4.4v1.4c-.1,0-.8,2.5-.8,2.5h0l-1.3-.6-1.1-.3h-2.7s-1.3-.4-1.3-.4h-2.7c0-.1-.4-.2-.4-.2l-.5-.5-.5.5-.8.3v.3c-.1,0-.5.4-.5.4l-.5.2-.3-.5v-1s-.7-1.7-.7-1.7l.2-1.5.4-.6v-.2c-.1,0-.8-.2-.8-.2h-.5c0,.1-.4-.1-.4-.1h-.2s.2-.6.2-.6l-.3-.3v-.4l.3-.7v-.7c0,0,0-1.9,0-1.9l-.4-.7-.5-.6v-.5c-.1,0,0-.3,0-.3l-.7-.6v-.3c-.1,0,0-.7,0-.7l-.3-.4h-.6c0-.1-.6.1-.6.1l-.2-.4v-.4c0,0,.7-.6.7-.6l.4-.7.8-.7h.3c0,0-.1.8-.1.8h.2c0,0,1.1-1.2,1.1-1.2l.2-1h0s.2-1.3.2-1.3l.5-.5.9-.7v-.3s-.7-.7-.7-.7h-.3c0,0-.3.4-.3.4h-.2c0-.1-.2-.8-.2-.8h-.3c0-.1-.4-.6-.4-.6h-.4c0,0-.2-.9-.2-.9l-.2-.3-1.3-.8-.6-1-.8-.7-1.7-.3-.4-1v-1.2s-.2-1.9-.2-1.9l-.5-.4-.4-1-.7-.7h-.2c0,0,.2-1.1.2-1.1h-.4c0-.1-.2-1.6-.2-1.6h.4c0,0,0-.6,0-.6l-.3-.4.5-.9v-.7l.4-.3.4-.6-.4-1.1-2.4,1.2-.3.7h-.5s-.5.2-.5.2l-.8.7-.9-.2-1,.2v-.5l-.2-.5v-.6c0,0-.4-.8-.4-.8v-1.4c-.1,0-.3-.3-.3-.3h-.4s-.3-.3-.3-.3h-.6c0,.1-.3-.4-.3-.4l.4-.9v-.4c0,0,.4-.5.4-.5v-.3s.4,0,.4,0l.2-.2.5-1.1.7-.4h.3c0,0,.1.3.1.3l.3-.2h.7c0,0,.2,0,.2,0l.3.5v-.3c.1,0,1.3-.8,1.3-.8l.2-.4v-.7s-.6-.6-.6-.6l-.3-.7-.7-.9-.6-1.2-.3-1.6-.4-.7-.5-.4h-.5c0-.1-.8.6-.8.6v.2s.3.5.3.5h-.5c0-.1-.2-.5-.2-.5l-.5-.3-.4.2h-.5c0,0-.8.5-.8.5h-.3c0-.1-.5,0-.5,0l-.5.7-.9.6h-.8v.7l-.2.4h-1s-.7.5-.7.5v.7c0,0-.1,0-.1,0h-.7c0-.1-.5-.6-.5-.6l-.7-.2-1.5.2-.4-.2v-.4c-.1,0-.7-.3-.7-.3v-.2l.3-.3-.3-1-.7-.4h-.3c0,.1-.4,0-.4,0l-1.3.7h-.5c0,0-.7.2-.7.2h-.2c0,0-.2.1-.2.1l-.4-.3h-.5v-.2c-.1,0,0-.5,0-.5l.7-.3.2-.4v-.8c0,0,.5-.6.5-.6v-.3l-.6-.5-.3-.7v-.3c0,0,.6-.5.6-.5l.2-.5v-.4c-.1,0-.5-.3-.5-.3v-.4c0,0,.8-.2.8-.2l.3-.2v-.7c.1,0,.6-.4.6-.4h.7c0,0,.3,0,.3,0l.5-.4h.5c0,0,.3-.2.3-.2l.2-.7v-.7l.3-.4-.2-.2v-1.7c.1,0,.9-.4.9-.4h0l.4-.2h0l.2-.4h.7c0,0,1.6-.8,1.6-.8l.6-.5,2.6,1.5h.4c0-.1.2-.6.2-.6h0l.8.4.2.5.6.5,1.6.5.8.9.2,1,.2.3.8-.5h.7c0,0,.5.3.5.3l.3.4v.6c.1,0,.6.5.6.5l.5.2h.7c0,0,.9-.9.9-.9h1.3l.6.3h.8c0,0,.8-.8.8-.8l1,.2.8-.9.5-.2.3-1.6.4-.4h2c0,0,2.3-.8,2.3-.8h2.3c0,0,1-.9,1-.9l.6-1.2.9-.8,1.6-2.1,1.3-2.5-.3-1.2v-.7c.1,0,.6-.6.6-.6l1.1-.6.2-.7.7-.4.2-.8v-2.2s.2-.7.2-.7l.8-1.4.4-.3.3-1.3.2-.3h.5c0,0,.6.5.6.5l.8.3.3.3v.4l.6.3h.7c0,0,1-.4,1-.4l1.8-1.1,2.3-.8,2-1.2h1.3c0,0,1.4.2,1.4.2l1.6-.4h.9l.5,1.1.6.5,1.3.6h.5c0,.1,1.1-.2,1.1-.2l.5.3,1.1,1.4,1.4.5h.4c0,0,1.3-.7,1.3-.7l1.3-.2"/>
  <path id="ID-KR" class="st0" d="M160.4,132.9v.3c.1,0,.9.2.9.2v.4c.1,0,.7.9.7.9l.4.3v.2c0,0-1.1.8-1.1.8l-.4.8v1.1c-.1,0-.3.1-.3.1h-.4c0-.1-.7-1-.7-1h-.2l-.5.2v1.3c-.1,0-.6.2-.6.2l-.2-.3v-1c-.1,0-.5-1.2-.5-1.2l-.6-.3-.5-.6.2-.9.2-.3v-.3s.6,0,.6,0h.1c0-.1,0-.9,0-.9l.2.8-.4.4.4.6h.2c0-.1,0-.9,0-.9h.1c0,0,.2.2.2.2h.6c0,0,.5-.3.5-.3v-.6l.2-.2.6-.2h.2q0,0,0,0ZM165.7,130.6h.1c0,.1.4,0,.4,0v-.9s.2-.2.2-.2l1.2,1.6.9.8h.8c0,0,0,.5,0,.5h-.3c0,0-1.2-.4-1.2-.4l-.3.3.4.5v.2c-.1,0-1-.5-1-.5h-.4c0,.1-.9-.5-.9-.5v-.2c0,0,0-.1,0-.1h-.4c0,0-.3-.5-.3-.5l-.8-.4h-.9c0,.1-.9.8-.9.8h-.5c0-.1-.7.4-.7.4h-.4c0-.1-.1-.6-.1-.6h-.7c0,.1-.5,0-.5,0v-.2c0,0,0-.6,0-.6l.7-.5v-.2c.1,0,.7-.2.7-.2l-.2-2.3.8-.4,1,.5.6.6.5.8h.2s.2.5.2.5l.6.5v.4s.2.3.2.3l.7.3h0ZM158.8,124.6l.2.2v-.4c0,0,.3.1.3.1h.3c0,0,1.9,2,1.9,2l-.4.2h-.1c0,0-.4.3-.4.3l-.5-.3-1.3-1.4-.9-1.6h.2c0,0,.8,1,.8,1h0ZM161.2,123l1.8,2.2.8.8.6.3v.3c.1,0,0,.3,0,.3l-.7-.3-.6-.6-.9-.6-.9-1.2-.7-.6v-.5s.6.2.6.2v-.2c0,0,.2.1.2.1ZM159.2,121.4l.6.4h0c0,0-.4,0-.4,0v.2c0,0,.2,0,.2,0v.3c.1,0-.1,0-.1,0l-.6-.4v.3c0,0-.1,0-.1,0l-.2.4h-.3c0,0-.5-.9-.5-.9h-.2c0,0,0-.6,0-.6v-.2c0,0,.5.4.5.4h.2c0,0,0-.5,0-.5l-.4-.2-.2-.3h.3c0,0,1.5,1,1.5,1h0ZM156.8,113.5l-.2.4v.4s.7.5.7.5h-.3c0,0-.5.3-.5.3l.9.2v-.3c0,0,.5.3.5.3l-.2.3-.6-.2v.9h-.1c0,0-.6-.4-.6-.4l-1.3-2.2v-.2s.5-.1.5-.1h.3s.6-.2.6-.2c0,0,.3.2.3.2ZM150.8,113.9v.2c-.1,0-.6-.6-.6-.6l-1.1-.9-.2-.4v-.6c0,0,.9.4.9.4l.7.6v.4c.1,0,.5.5.5.5v.3c-.1,0-.3,0-.3,0h0ZM149.3,113.7l-.2.5-.2-.4h-.4c0,0-.8-.6-.8-.6l-.5-.8v-.4h.3s.3-.4.3-.4l1.1,1.3.4.9h0ZM143.1,111.8v.6c.1,0,1.2,1.3,1.2,1.3l-.2.3-1-.8.4.7-.2.8.3.4-.4,1-.2.2h-.4s-.2-.3-.2-.3h-.1c0,.1-.6,0-.6,0l-.3-.6-.6-.7-.2-1.8.3-.5v-.7s.6.1.6.1l.2.3v-.6c-.1,0,0-.4,0-.4h-.1c0-.1.6-.5.6-.5h.5c0,0,.2.3.2.3v.9q0,0,0,0ZM154.2,110.8h.3c0,0,.1-.3.1-.3h.4c0,0,.3.3.3.3v.5c-.1,0-.4,0-.4,0v.5c.1,0,.5.2.5.2h.4c0,0,.8.3.8.3v.2l-.3.4-1,.7h-.4s-.4-1.2-.4-1.2l-.7-.3h-.2c0,0,0-.8,0-.8l-.2-.2-.3.3-.3-.2.2-.7h.5c0,0,.6.2.6.2v.2h0ZM148.7,110.5h-.2l-.7-.8v-.3l.4-.3.5.5v.9ZM149.9,108.6v.3c0,0,.3.4.3.4l.2.2.3.3,1.2.7v.5c0,0-.2,0-.2,0v.2c-.1,0-.2.2-.2.2v.4c.1,0,0,.2,0,.2h-.2l-.5-.6-.7-.2-.7-.5v-.6l.2-.2-.6-.6v-.3c.1,0,.5.2.5.2l.4-.2v-.5h.2c0,0,0,.5,0,.5ZM141.8,107.4v.2c0,0,0,0,0,0h-.4c0-.1,0,.6,0,.6l.3.6h.4c0,0,.5,1.2.5,1.2h-.9s0-.3,0-.3h-.6c0,0-.7-.6-.7-.6v-.8s.2-.1.2-.1v-.5c.1,0,.8-.2.8-.2l.3-.6.3.3ZM154.6,107.4v.5c0,0-.2.2-.2.2v1.2h-.7c0,0-.2.5-.2.5l.2.4-.8-.2-.2.2-.5-.2v-.2c-.1,0-.9,0-.9,0l-.7-.5-.3-1v-.3c0,0,.4,0,.4,0v.6c0,0,.3,0,.3,0v-.7c0,0-.2,0-.2,0v-.3s1.2.1,1.2.1l.2-.8h.4c0,0,.6.6.6.6h.3c0,0,.2-.1.2-.1l-.2-.2v-.3l.6-.2.4.4.3.5h0ZM162.1,106.9v.7c.1,0,.9.4.9.4l.5,1.2-.2,1.2v.4c0,0,.3.2.3.2v.4h-.3v.3h.2c0,.1.6,0,.6,0v.5c-.1,0-.9,1-.9,1l-.6-.2h-1s-.6-.2-.6-.2l-.8-.7h-.2c0,0-.7,0-.7,0v-.2s.7-.2.7-.2l-.5-.4v-.3c.1,0,0-.2,0-.2l-.4-.4.2-.3h.6c0,0-.2-.4-.2-.4l.4-.5-.4-.4-.8.4v.6s-.1.2-.1.2h-.3v-.4c0,0-.4-.2-.4-.2l-.2.4h-.2c0,.1-1.2,0-1.2,0l-.4-.3-.3-.6v-.4c-.1,0,.4-.8.4-.8l1.5-.2-.3-.8.4-.2.7.2v-.2c.1,0,.5-.2.5-.2l1.1.5h.6s.6-.4.6-.4l.2-.5h.4c0-.1.1,0,.1,0v.9h-.1Z"/>
  <path id="ID-KS" class="st0" d="M366.4,189.5l-.2.2-1.1-1.8.6-1.6.9-1.1h.2c0,0,.2.4.2.4v.6l-.7,3.3h0ZM361.7,196.5l-.6.2h-.5c0,0,0-.3,0-.3v-.8c0,0,.5-1.3.5-1.3v-1.8c0,0-1-1.2-1-1.2l-.2-.8v-.7s1.9-5.6,1.9-5.6l2.5-1.8h.2c0,0,0,.4,0,.4l-.4,2.3.3,2.6.8,4-.2,2.4-2.5,1.9-.7.3h0ZM355.4,149.6l-.2,1-1.1,1.3h-.2c0,0,.1-.9.1-.9h-.3c0,0-.8.6-.8.6l-.4.7-.6.6v.4c0,0,.1.4.1.4l.6-.2h.6c0,.1.3.5.3.5v.7c-.1,0,0,.3,0,.3l.7.6v.3c-.1,0,0,.5,0,.5l.5.6.4.7v1.9c.1,0,0,.7,0,.7l-.3.7v.4l.3.3-.2.6h.2s.4.2.4.2h.5c0-.1.6.1.6.1v.2c.1,0-.2.6-.2.6l-.2,1.5.7,1.7v1s.2.5.2.5l.5-.2.4-.4v-.3c.1,0,.9-.3.9-.3l.5-.5.5.5h.4c0,0,2.7.2,2.7.2l1.3.4h2.7s1.1.3,1.1.3l1.3.6h0l-.4,1.9-.5.7h-.4s-.2-.1-.2-.1v-.6c-.1,0-.9-.4-.9-.4l-2,.4v1.6s1,.9,1,.9l.2,3.1-.3.9-1.4,1.8-.5.3h-.2c0,0-.2-.4-.2-.4l-.2-1.2-1-1.6-.2-.2h-.1c0,.1-.4,1.9-.4,1.9l.2.9,1,1.4.6.5v1c.1,0-.7.4-.7.4l-1.2,1.7-1.5,2.9-.4,2.4-.2.5-.4.2-2,.3-1.1,1.1-.6.4-3.2,1.4-4.5,1.6-6.2,2.6-3.8,2.3-1.2.2-.4-.4v-.6c-.1,0-.1-7.3-.1-7.3v-.8c-.1,0-.5-.7-.5-.7l-1-1.3-.7-.7h-.7c0,0-1.5-.8-1.5-.8h0v-.9l.8-2.4,1.5-2.3.4-2.3,1.5-3,1-.3.4-.3.2-.2v-.2c-.1,0,0-.4,0-.4h.4c0,.1.9-.2.9-.2l.5-.6.3-1.8.7-.6.5-.8v-.6s.2-.3.2-.3h.6s5.9-4.2,5.9-4.2l.4.3h.3s.2-1.3.2-1.3l.4-.8-.7-1.6v-.4l1-.7.2-.8-.7-.9v-.8c-.1,0,.6-2.2.6-2.2l.9-3.9v-.2c.1,0,2-.1,2-.1l1.8-.7.4-.3h.5c0,.1,1-.7,1-.7h0l.4-.3h0Z"/>
  <path id="ID-KT" class="st0" d="M268.6,178.5l.4-.9.4-.3,1.2-.4.8-.5,1.2-.2.6-.5v-.6c.1,0,1.6-.4,1.6-.4l.9-.4.5-.9-.2-.4h-.3s-.5-.3-.5-.3l.3-.8-.5-2.1v-1.3c0,0-.6-1.8-.6-1.8l-.7-1.1.6-.7v-.3s.2-.2.2-.2v-.2s-.6-1.3-.6-1.3l.7-.6v-.4c0,0,0-.4,0-.4h0c0-.1-.9-.3-.9-.3h-.5c0,.1-.3,0-.3,0v-.4c-.1,0,.2-.4.2-.4v-.4s-.3-.4-.3-.4v-.6s.1-.4.1-.4l.4-.3v-.4c.1,0,0-1.2,0-1.2l-.2-.5-.3-.2-.4.2v.4c-.1,0-.3.1-.3.1h-.4c0,.1-.3,0-.3,0l-.2-.4h-.4c0-.1,0-.9,0-.9l.5-.4.3-.4.9-.2.4-.6.5.4.3-.3h.5c0-.1.4.3.4.3l.8-.2v-.4c0,0-.3-.4-.3-.4l.8-.5.3.2v.5s.4.1.4.1v-.7c0,0,0-.8,0-.8h.4c0,.1.1-.4.1-.4l1.1.2v-.3s.2,0,.2,0l.4-.5.2-.6.6-.3.4-.8h.3v-.5c.1,0,.3-.2.3-.2h1.1s.3-.3.3-.3l1.2-.2v-.3c.1,0-.2-.3-.2-.3l.3-.5-.3-.6.3-.5h.5c0-.1.5-.6.5-.6l-.2-.7.3-.4h.6s.9-.6.9-.6l.2-.3.8-.3h1c0,0,.5-.2.5-.2l.2-.6h.1c0,0,.7,0,.7,0l-.3-.8v-.9c.1,0,.6.5.6.5h.4c0,.1,1.2-.2,1.2-.2v-.3c0,0-.2-1.1-.2-1.1l.2-.2h1.1c0,.1.8.4.8.4h.5c0,0-.2-.8-.2-.8l.8-1.1h.5s.4.3.4.3l.6,1.2.4.5.4-.4.4.2.9-.3.5-.4h.4c0,.1,0,.8,0,.8l.4.3.2-.2v-.5c0,0,.9.2.9.2v-.2c0,0,1,0,1,0v-.2l.6-.4h.9s.2-.4.2-.4h.7s0-.9,0-.9h.6c0-.1.6,0,.6,0h.7c0-.1.7-.8.7-.8l1.4-.4.3-.3h1.3c0,.1.3-.1.3-.1h.4l.3-.5h.4c0-.1.1.2.1.2h.5s.3.5.3.5h.1c0,.1.1,0,.1,0l.2-.5.7-.8-.2-.8-.8-.7.3-.2.2-.6.5-.4.4-.6.9-.2.6-.5.3-.6h.4c0,0,0-.4,0-.4l-.3-.2.4-.3.4-.8v-.2c0,0-.4,0-.4,0l.2-.8.3-.4-.4-.2-.2-.3.2-1.3-1.5-.8-1-1v-.2s.7-.4.7-.4l.7-.2,1.4.2.9-.6.5-.4v-.2c0,0,1-.8,1-.8l.2-.3,1.3-.8.3-1.1.7-.4h.4l.2-.4.4-.2.2-.4.4-.2.2-.7.5-.3h.5l.4.3.2-.2h.2c0,0,.7-.2.7-.2h.5c0,0,1.3-.6,1.3-.6h.4c0,0,.3,0,.3,0l.7.4.3,1-.3.3v.2l.6.3v.4c.1,0,.5.2.5.2l1.5-.2.7.2.5.4h.7c0,.1.2,0,.2,0v-.7c0,0,.6-.4.6-.4h1s.2-.4.2-.4v-.6h.8s.9-.7.9-.7l.5-.7h.5c0,0,.3,0,.3,0l.8-.6h.5c0,0,.4-.2.4-.2l.5.3.2.4h.5c0,.1-.3-.4-.3-.4v-.2s.8-.8.8-.8h.5c0,.1.5.5.5.5l.4.7.3,1.6.6,1.2.7.9.3.7.6.6v.7s-.2.4-.2.4l-1.2.8v.3c-.1,0-.5-.5-.5-.5h-.2s-.7,0-.7,0l-.3.2v-.2c-.1,0-.4,0-.4,0l-.7.4-.5,1.1-.2.2h-.4c0,0,0,.4,0,.4l-.4.5v.4c0,0-.3.9-.3.9l.3.5h.6c0-.1.3.2.3.2h.4s.2.3.2.3v1.4c.1,0,.6.8.6.8v.6c0,0,.1.5.1.5v.5l1-.2.9.2.8-.7.5-.2h.5s.3-.7.3-.7l2.4-1.2.4,1.1-.4.6-.4.3v.7l-.5.9.3.4v.5s-.5,0-.5,0l.2,1.5h.4c0,.1-.2,1.2-.2,1.2h.2c0,0,.7.8.7.8l.4,1,.5.4.3,1.9v1.2s.4,1,.4,1l1.7.3.8.7.6,1,1.3.8.2.3.2.9h.4c0,0,.4.4.4.4h.3c0,.1.2.8.2.8h.2c0,.1.3-.2.3-.2h.3c0,0,.8.6.8.6v.3s-.9.7-.9.7l-.5.5-.2,1.3h0l-.4.3h0l-1,.8h-.5c0-.1-.4.2-.4.2l-1.8.7h-1.9c0,.1-.1.3-.1.3l-.9,3.9-.7,2.2v.8c.1,0,.8.9.8.9l-.2.8-1,.7v.4l.7,1.6-.4.8-.2,1.3h-.3s-.4-.2-.4-.2l-5.9,4.3h-.6s-.2.3-.2.3v.6s-.5.8-.5.8l-.7.6-.3,1.8-.5.6-.9.3h-.4c0-.1-.2.3-.2.3v.2c.1,0,0,.2,0,.2l-.4.3-1,.3-1.5,3-.4,2.3-1.5,2.3-.8,2.4v.9h0l-2.4-1.1-1.9-.5h-1.2c0,0-3.6,1.8-3.6,1.8l-1.9.3h-.8s-1.1-.7-1.1-.7l.5-1.6v-1.6c0,0-.2-.9-.2-.9l-.4-.5h-2.3c0,.1-.5.6-.5.6l-.2.6-1.3.3-2.1-1.3-3.1-3.3h-.5c0,0-1.5,1.5-1.5,1.5v.6c-.1,0,.3.6.3.6l-.3,1-3.3,2-1.2.8-.7.7-1.8.5h-.3s-2-1.6-2-1.6l-1.9-.7h-1s-1.5.5-1.5.5l-3.7,3.5-.6.3h-.4c0,0-1.5-.5-1.5-.5l.6-2.3-.5-3.7v-.8l.3-1.1v-.7s-1.4-2.4-1.4-2.4l-.4-1.6h-.5c0,0,0,.7,0,.7l-.6.8.4.4v.4c-.1,0-1,.2-1,.2l-.3.3-1.2.8-.2-.5-.9-.8-.7-.6h-.4c0,0-1.5,0-1.5,0l-3,1.8-1.2.5-1,.3-1.5.2-2.2-1.5-1.4.2Z"/>
  <path id="ID-KU" class="st0" d="M388.4,70.6l-.6.4-1.3-1-.5-1.2v-.4s.2-.2.2-.2h1.5c0-.1.8.1.8.1v.3c.1,0-.1,2-.1,2ZM383.7,65.8l2.2,1.3v.2s-.6.5-.6.5l-1.7-.7h-1.9c0,0-.6-.4-.6-.4l-.4-.5v-.4c0,0,1-.4,1-.4l2,.5h0ZM389.4,58.4l-.8.3-1.2-.9-.2-.9v-.2c0,0,.9-.8.9-.8h.5s1.2,1.1,1.2,1.1v.5c.1,0-.4,1-.4,1ZM392.2,55.1l.4.2.4,2-.6.4h-.5c0,0-.6-.2-.6-.2l-3.5-2.8v-.3c0,0,1-.7,1-.7h.5s1,.3,1,.3l.2.4.6.4s1.1.3,1.1.3ZM354.2,56.6v-.9s.4-.7.4-.7h.4s.8-.9.8-.9h.4c0,0,.1.4.1.4h.4c0-.1.1-.7.1-.7l.7-.6v-.4c-.1,0,0-1,0-1l.5-.2.3.6,1.5.3.3.2v.5c.1,0,.8.5.8.5h.2c0-.1.4-.9.4-.9l.9-.3v-.6c.1,0,.3-.1.3-.1l1.4.2.3.2,1.5-.3,1.2,1,.2.6h.6c0-.1.2-.7.2-.7l.4.2h.5c0,0,0-.7,0-.7l.5-.7.4.5h.4c0,.1.2.7.2.7l.8-.2.5.2h.3c0,0,.3-.3.3-.3l.3-.5.4.2.4.5h.3c0-.1.5.2.5.2l.7-.2.5-.4.7.2.3.2h.6c0,0,.3.4.3.4l.3-.4,1.1.2.6-.2h.6c0,.1.6,0,.6,0v-.2c0,0,.6-.2.6-.2l3,2.2.4.9.2.2,1.2.3.9-.3.2.2h0l-.8.5-.9.3-1.6-.5-.2.2v.6l.4.3,1,.2,2.6,2.2-1.8.3,1.7,1,1.6.2,1.3,1.3v.3s-.2.6-.2.6l1.1.3v.2c0,0-1.3,1.1-1.3,1.1l-1.1.2-3.2.2-2.7-.4-1.8.3-.5.3-.4.7v.4s.6.9.6.9l1.5.9,1.3-.2.8.2v.8s-.3.5-.3.5l1.8.9-.2.3-1.3.2-.9.3-.3.5-1,.2-.2.3.5.3,2,.3,2.7,1.2,1.2,2.1-.3,1.6v1.3s1,.2,1,.2l.8.5.2.3v1.3c.1,0,.4.7.4.7l2.8,2.7h0l-.7.6-1.3.2-1.3.8h-.4c0,0-1.4-.6-1.4-.6l-1.1-1.4-.5-.3-1.1.3h-.5c0,0-1.3-.7-1.3-.7l-.6-.5-.5-1.1h-.9l-1.6.4-1.4-.3h-1.3c0,0-2,1.2-2,1.2l-2.3.8-1.8,1.1-1,.3h-.7c0,0-.6-.3-.6-.3v-.4l-.3-.3-.8-.3-.6-.6h-.5c0,0-.3.4-.3.4l-.3,1.3-.4.3-.8,1.4-.2.7v2.2s-.2.8-.2.8l-.7.4-.3.7-1.1.6-.5.6v.7c-.1,0,.2,1.2.2,1.2l-1.3,2.4-1.6,2.2-.9.8-.6,1.2-1,.9h-2.3c0,0-2.3.9-2.3.9h-2c0,0-.4.4-.4.4l-.3,1.6-.5.3-.8.9-1-.2-.8.9h-.8c0,0-.6-.4-.6-.4h-1.3l-.9,1h-.7c0,0-.5-.2-.5-.2l-.4-.5v-.6c-.1,0-.5-.4-.5-.4l-.5-.2h-.7c0,0-.8.4-.8.4l-.2-.3-.2-1-.8-.9-1.6-.5-.6-.5-.3-.5-.8-.4h0l.5-.8-.2-.3v-.8c.1,0,.9-.5.9-.5l.5-.9.4-.3v-1c.1,0,0-1.2,0-1.2h-.1c0-.1.5-.8.5-.8v-.3c0,0,.5-.2.5-.2l.5.2.5-.6h.7c0-.1.4-.4.4-.4l-.4-.8v-.2s.7-.5.7-.5v-.2s-.5-.2-.5-.2l-.8.3-.2-.4.2-1-.4-.2-.2-.3v-.8s.3-1.3.3-1.3l1.8-.2.8-.5v-.2s-.3-.4-.3-.4l.3-.6h.7c0,.1.4-.1.4-.1l.5-.6h.7l.2-.6.5-.4.6-.2h.8s.6-.5.6-.5v-.3c0,0-.4-.3-.4-.3v-.3c-.1,0-.8-.8-.8-.8l-1,.3-.3-.5.3-.4v-.4c0,0,0-.5,0-.5h-.2v-.5l.6-.5v-.4l.2-.3-.2-.3h-.5c0-.1,0-.3,0-.3l1-.8.2-1.1,1.6-1.1.3-.8.6.7v.4s1.3,0,1.3,0l.8-.8h1c0-.1.2-.5.2-.5v-1.1c.1,0,.9-.7.9-.7v-.2l-.7-.5v-.2s.4-2.8.4-2.8l.6-1.3h.3s.4.6.4.6l.4-.6-.6-1v-1.1c-.1,0-.5-.5-.5-.5l-.2-.9v-1.5s.2-.7.2-.7l.5-1v-.6s0-.2,0-.2l-.8-.6v-.3c-.1,0,.7-.2.7-.2l.5-.4.7-2.1h0v-.2s0,0,0,0Z"/>
  <path id="ID-LA" class="st0" d="M148.3,209.5h.6c0,0,0,.5,0,.5h.4s.4.5.4.5v.5l-.4.4v.2h.4s.8.7.8.7l.3-.4.2-.9.5.4,1.4-.2.2-.2h.2c0,0,0,.3,0,.3l.9.3,1-.5v-.4c.1,0,.5,0,.5,0l.5.3h.4l.3-.2.4.4h.4c0-.1.7-1.1.7-1.1v-.4s0-.4,0-.4l-.7-.6v-.8c0,0-.6-.3-.6-.3l.3-.8.6-.6-.3-2.7.3-.8h.3c0,0,0-.5,0-.5l.8-.6.5-.6h.6c0,0,.6-.5.6-.5l1.2-.5.7-.6.4.5h.2c0,0,2.2.2,2.2.2l1.5-.2v-.4c0,0,1.2-.6,1.2-.6l.6-.2h.6s.4-.5.4-.5l.6-.4.3-1,.3-.3h.4c0,0-.3-.4-.3-.4l.4-.4.3-1.1h.2c0,.1.2,0,.2,0v-.5c.1,0,.6-.3.6-.3l.7.2.7-.6.2-.5-.3-.6.4-.3v-.6c.1,0,.5-.5.5-.5h.2c0,.1.3,1.2.3,1.2l.3-.2h.5c0-.1.3,0,.3,0v.7c.1,0,.9,0,.9,0l.2.3h.6v.8c-.1,0,0,.2,0,.2l.4-.2.4.3v.5c0,0,.2.2.2.2l.3-.2h.1c0,0,.1.4.1.4h-.4l.5.4v.2l.3.3-.4.5v.3c0,0,.2,0,.2,0v-.3h.2c0,.1.5,0,.5,0h0c0,0-.3.3-.3.3v.2h.6v.2s.3.1.3.1v.5c-.1,0,0,.1,0,.1h.8c0,0,.3,0,.3,0v-.3c0,0,.3,0,.3,0l.5.3.3.6h0l-.2,2.7,1.5,2.4v.3c0,0,0,1.2,0,1.2l-.3.8v.4s.5.5.5.5l-.6,1.2-.4,1.9.2.9.5.6v.4c.1,0,0,.2,0,.2l-.5.3-.3,1.2v3.6c.1,0,0,.5,0,.5l-.5.3v.5c-.1,0,0,2.2,0,2.2l-.2,1.6.2.7-.6,2.1v1.2c0,0-.3,1.1-.3,1.1l-.8,1.1h-.3c0,.1-.2-.9-.2-.9l-1.7-.2-.4-.3-.2-.5v-.5s.2-.3.2-.3v-.2c0,0-.7-.6-.7-.6h-.5l-.2-.2-1.4-.8-.8-.8-.3-.7-1.2-1.7h-.3c0,0-.4,0-.4,0l-.2.3v2c-.1,0-.9-.2-.9-.2l-.6.4.4.5v.3s.3,0,.3,0l-.5.3.2.2v.4s.4.3.4.3h0c0,.1-.6.1-.6.1l-.4.4.3.5h.8c0,0-.5.4-.5.4h-.6c0,.1-1.7-.8-1.7-.8l-1.7-.7-3-1.9-.7-.6-.8-1h-.6s-1-.3-1-.3l-.9.4-.5.4.4.3v.6c.1,0,1.1,1.2,1.1,1.2l.4.2.3.5v.4s-.2.1-.2.1l1.2,1.8v.3c-.1,0,.3,1.2.3,1.2v.2c0,0-2.6.1-2.6.1l-.4-.2v-.2c0,0,.2-.2.2-.2l-.2-.7-2.1-1.9-.4-.7-.8-.6-1.2-.6.3-.5-.9-1.1-3-2.1-1.5-1.7v-1c-.1,0-.4-.3-.4-.3l-1.3-.3v-.4s.5-.6.5-.6l-.2-.5-.4-.5-.2-.2h-.4s-.5-.6-.5-.6l-1-.8h-.3v.2s-.2,0-.2,0h-.2c0-.1,0-.8,0-.8l-.8-.7h-.7s-.6-.5-.6-.5h-.5c0-.1.2-.7.2-.7h.3c0,0,.6-.6.6-.6h.4c0,0,.5-.5.5-.5v-.5c.1,0,.9,0,.9,0h.1c0-.1.1-.2.1-.2h0Z"/>
  <path id="ID-MA" class="st0" d="M584.8,269.6h-1.6c0,0-1.5-.8-1.5-.8l-.2-.3,1-.4h1.4c0,0,1,.6,1,.6v.5c0,0-.2.4-.2.4h0ZM564.5,266.7l1.8.6h1.7c0,.1.9,0,.9,0l.4.3v.2s-1.5,1.7-1.5,1.7h-.2s-3.4-1.1-3.4-1.1l-.5-.3-.7-1.3,1.4-.2h0ZM615.8,271.1h-.7s0-.2,0-.2l1.6-1.7,1.2-.7.6-1,.9-1h.3c0,0,2.5.7,2.5.7l-.6.6-3.2,1.2-1.1.8-.2.4-1.2.7h-.3s0,0,0,0ZM597.8,266l-1.3-.3-1.9-2.3v-.4c-.1,0,0-.7,0-.7v-.4c0,0,.4-.3.4-.3l1.6-.2,2,.5.4.3.3,1.4-1.6,2.4h0ZM545.1,259.3h.8s.4,1.4.4,1.4h-1.4c0,0-1.7.6-1.7.6l-.9.6-1,1.2-1.5.8-2.4-.3-2.7-.5h-1s-2.3.5-2.3.5l-2.2,1.8h-.3c0,0-.2-.2-.2-.2l.7-2.7,2.8-3.4,3.7,1.1,2.7-.5,1.2-1.1,1.3-.6,2.3-.6h.2c0,.1,0,.8,0,.8l1.4,1h0ZM556.8,258.9h-.3c0,.1-.3,0-.3,0l-.2-.4.4-2,.4-.2,1.7.5v.3c0,0,0,.7,0,.7l-1.5,1.1h0ZM620.4,256.5l-1.3-.4-.2-.5.3-.5.5-.2,2.3-.2h.2c0,.1-.7,1-.7,1l-1.1.8h0ZM631.9,251.3l-.7.3h-.4c0,0-.6.4-.6.4l.7,3.3v.7l-.8,2.6-1,1.3-3,2.2-1,1.6v1.3c0,0-.3.3-.3.3l-.5.2-2.9-.3-.5-.2-.4-2.3,1.8-3.1-.2-.5,1-2.9,1.2-1,.5-.2.9-.9,1.2-1.5,1.4-2.4.8-.4h1.3c0-.1,1,.4,1,.4l.5,1.1h0ZM635.2,249.5l.9,1.3.2.6-.3.5h-.2c0,0-.8-.5-.8-.5l-.4-.9-1-.2-1.2.3h-.5c0-.1-.1-.3-.1-.3v-.5c0,0,.4-.2.4-.2l3.1-.2ZM578.6,251.3l-.5.2-1.5-.9-.2-.4v-.2c0,0,.4-.4.4-.4l1.2-.7,1.4.8v.2c0,0-.3,1-.3,1l-.4.5h0ZM686.6,236.4l-.3.3-.6,1.4v.7c0,0-.7,1.2-.7,1.2l-.3-.2h-.5c0,0,0,.5,0,.5l.2.5.3.2v.4h-.3l-.3.2v.7c-.1,0-.8,1-.8,1l-.5.5h-.3l-.6-.4v-.5c0,0,.6-.5.6-.5l.3-.8v-.8c0,0,.5-.6.5-.6h-.3s-.2-.3-.2-.3l-.3-.9v-.5c0,0,.8-.5.8-.5l.7-.3v-.7s.1-.2.1-.2l.7-.3.3-.5,1-.8h.5s.3.3.3.3v.9q-.1,0-.1,0ZM649.8,229.3l-.6.2-.8-.3-.4-.4v-1.2s-.2-2.1-.2-2.1l-.5-1.4v-.3c.1,0,1.2-.3,1.2-.3l1.8,3.4v1.1l-.5,1.3ZM683.7,224.9v1c0,0,.5,1.1.5,1.1h-.6v.4l1.3.7v.3s-.2.3-.2.3h-.4c0,.1-.8-.2-.8-.2v.5s.4.3.4.3v.2c0,0,0,.4,0,.4h-.3c0,.1-.4,0-.4,0l-.6-.5h-.2v.4l.9.7.2.4.6.3.4.6-.4,2.3-.3.9-.7,1.1-1.3.7h-.5c0-.1-.2,0-.2,0l.4,1,.5.3v.5c0,0-1.2,1-1.2,1l-.9-.3-.3.2-.2.6v.3c0,0,.6-.2.6-.2v.5s-.7,1-.7,1l-.7.5-1.3,1.5v.7s-.5.6-.5.6l-2,.9-.3.3h-.5c0,0-.4-.9-.4-.9l-.3-.3h-.7l-.8-1.3v-.4l.2-.2.4-1.5.2-3.1.3-.8v-.4s.3-1,.3-1v-1.8c-.1,0-.6-1.5-.6-1.5h.7c0,0-.4-1.3-.4-1.3l.2-.6v-.5l.4-.4.2.2v.3h.3s.5-.3.5-.3h.5v.7c0,0,.3.2.3.2h.3c0-.1.5-.6.5-.6l.5-1.3v-.2l-.5-.3v-.3s.2-.3.2-.3l.5-.4v-.3c0,0,.5-.3.5-.3l.3-.6v-.2c0,0-.4-.1-.4-.1l-.5.3-.7-.6h-.8c0-.1-.5-.6-.5-.6v-.3c0,0,.7-.7.7-.7l1,.6h.4s1.3-1,1.3-1l.6-1.6.8-.5v-.6c0,0-.1-.9-.1-.9l.2-.5.9-1.2.6-.2.4.2,1,1.6.5.4v.3s.5.7.5.7v1.1s.9,1.1.9,1.1v.5c0,0-.5.2-.5.2h0ZM653,228l-1.8,2.4h-.2c0,0,0-.4,0-.4l1.6-5,.3-.6.6-.6,2.2-5.6.4-.2h.6c0,0,.3.8.3.8l-1.3,4.4-.5.6-.8.5-1.2,1.6-.3,1v1ZM576.3,189.3l-2.1.4h-.1c0-.1.3-.7.3-.7v-1s.5-.4.5-.4h1.2c0,.1.9,1,.9,1v.2s-.7.4-.7.4ZM578,187.6l.8.3.4-.6h.3s.3.8.3.8v1.2l-1.4.2h-.2c0,0-1.2-1.8-1.2-1.8v-.3s.2-.2.2-.2h.3s.7.4.7.4h0ZM573,189.4l-.6,1.2-1,.8-2.1.6h-.4s1.8-1.8,1.8-1.8l.2-.4h-.3c0-.1-3.7,2.2-3.7,2.2h-.8c0,0-.4-.6-.4-.6v-.8s.9-1,.9-1l1.1-.7,2.7-.5.8-.9.7-.3h.5c0,.1.6.5.6.5l.2.2-.2,1.6h0ZM560.9,184.9l-1.9-.6-.7-.7.8-.6h.8c0,.1.9,1,.9,1l.5.7-.3.2h0ZM563.3,183h-1.7s-.6-.5-.6-.5l1.2-1.1h.8c0-.1.6.3.6.3v1.1s-.3.1-.3.1h0ZM549.8,181.1l1.9,1.2.2,1h-1c0,0-.2.3-.2.3l.2.7.8.7.5-.2.3-.3,2,.7-.4,4.1-.3.6-.5.2-.7-.2-.7.2-1.5.6-2.6,1.4-3,.9-3.2-1.1-2.2-1-2.4-1.6-3.4-3.2-.5-1.3v-2.9c-.1,0,.1-.6.1-.6l1.2-.8h.4c0,0,.4.7.4.7l.6.5h.6s.5-.7.5-.7l.7-.4,2.3-.6,5.5-.2,1.5.3,2.9,1.2h0ZM598.3,177.1l3.9,1.5h1.2c0,0,4.3-.3,4.3-.3l.7.2,3.7,2.6.7,1.8v1.4l.3.9.5.5h1.2s.8.2.8.2l.6.6.8,2.4v.6c0,0-.7.9-.7.9l-.2,2.5.2.8-3.7-1.4-1-1.1-2.8-1.6-4.6-1.5-2.5-1.3-.6-.7v-.9s-.8-.6-.8-.6h-.4c0-.1-4.1-.4-4.1-.4l-2.3-.3-.3.3v.5c.1,0,.8.9.8.9l.2.6-.2.6h-.5c0,.1-3.7-.8-3.7-.8h-1c0,0-1.6-.7-1.6-.7l-.8-.5h-2.9c0,.1-.3-.1-.3-.1l.2-.4.7-.6v-.7s-.7-.5-.7-.5h-.9c0-.1-1.9,1.1-1.9,1.1l-1.5,1.4-.2.5-1,.9-2,.4h-.5s-.7-.3-.7-.3l-.5-.4-1.8-2.6-1.5-1-.6-2.4h-.7s-.8.8-.8.8l-.6,1.5-.3,2.2-.5.6h-.4c0,.1-.9,1.8-.9,1.8l-.3,1.4-.2-.2-.2-1,.5-1.1v-1.2c.1,0-.8-1.4-.8-1.4l-.5-1.4,2.2-1.7,3.3-4h4c0,.1,2.8,0,2.8,0l5,.2,2.1-.5.9-.7h.4s.3.2.3.2v.4c.1,0,0,1.4,0,1.4l.5.6.5.3,1.4-.3,2.3-1.5.3-.3.2-.7.5-.2h2.1c0-.1,1.8.4,1.8.4l2.5,1,.5.6h0Z"/>
  <path id="ID-MU" class="st0" d="M533.9,169.6h-.5c0,0-.5-.2-.5-.2l-.5-.6-.3-.7-.2-1.6-.9-1.3-.6-2.5.4-1.1.2-.4.4-.2h.6c0,0,.8.8.8.8v.4s-.5,1.5-.5,1.5v.6s2,4.5,2,4.5l-.3.9h0ZM522.9,158.1l3.8.3,1.3-.2.5-.3h3.9c0-.1,6.2.4,6.2.4l-.2.4-1.4.6-4.7.5-8.9.6-2.1-1v-.2c-.1,0-.1-.8-.1-.8l.6-.7h.6c0,0,.2.3.2.3l.3.2h0ZM514.6,156.3l1,.3,1.8-.5,3,.7.5,1v1.7s-.3-.1-.3-.1h-2.4c0,0-1.8.2-1.8.2l-.5.2v.6c-.1,0-.5.1-.5.1l-2.5-.8-1.2.3-1.6,1-2,.6-.9.2h-2c0,0-1.3-2.2-1.3-2.2v-1.1s.7-2.1.7-2.1l.5-.6,2.3-.5h1.8s5.5,1.1,5.5,1.1h0ZM565.2,151.6l4,2.3.5.4.3.5v.4s-.3.8-.3.8l-.8.5h-.5c0,0-6.1-.4-6.1-.4l-1.1.7-1.7.2-1.9-.9-.7-.5-.3-.4.3-1v-.5c0,0,.1-1.1.1-1.1l.4-.7.3-.3.3.2,2.9-1.8,1.6.3,2.7,1.3h0ZM560.6,148.7l-2.1.2-.7-.4v-.2l.9-.8.7-.2,1.8.7-.6.8h0ZM555.5,140.7l-.7.2-2-.5v-.2c-.1,0-.1-.5-.1-.5l.6-1.8.2-.2h.4c0-.1.5,0,.5,0l.7,1.2.5,1.8h0ZM559.8,132.6l1.9,2.5-.3.9-.7.7-.4.8v.5c0,0,.8,1.1.8,1.1l.5.3.6-.4,1.2-.2,1.1.5.8,1v.5c0,0-1.4,1.1-1.4,1.1l-1.1.3-1.4-.6-1.2-1.5-2.1.9h-.4c0-.1-.3-.8-.3-.8l-.6-2.7-1.7-1.8-.2-1,.5-2,.9-.2.7.6,1.2-.3.9-.7.7.2h0ZM553.1,136.2h-1.2c0,0-.2-.5-.2-.5v-3.5s.6-.5.6-.5l1.6-.2.4.5.4,1.7-.5,2-1.2.5h0ZM565,96l.5.2h.3c0,0,.4,0,.4,0l1,.9.3.5.4,3.3-.8,3-1.4,2.5-1.3,1.1-3.2,2.2-.4.6v1s.5.7.5.7l1.7,1.2.7.3h.9c0-.1,1.3-1.1,1.3-1.1l.2-2.3.8-1.3,1.1-.8h.9c0-.1.8,0,.8,0l.6-.3.5-1-.2-.5-.3-.3h-.4c0,0-.2-.9-.2-.9l1-1.6,3.2-2.2,1.2-.5,1.8-.5,1.4-.2h1s.4.1.4.1l.3.2-.5,7.8-.6.7-3.8,2.2-2.5.7-1.5,1.5v.4s.4.8.4.8l1.1.9.9.5,4.1,1.5h.8s.8.1.8.1l.3,2.5-.2.9.7.5,1.9.5.8.6.5,1-.9-.7-.7-.2-4.7-1.1-1.6-1.3h-1.6s-1.4.2-1.4.2l-1.1-.3-.6-.3-.3-.5-1.5-.3-2-.2-.6.4-.3.3-.5,2.3.5.4.3,2.4-.7,1.1v1.3s2.6,6.8,2.6,6.8l1,1.9.8,1,1.3,2.2,3.3,3.2h-2.1c0-.1-.5-.3-.5-.3l-.4-.4v-.4c.1,0-1.6-1.3-1.6-1.3l-1.5-.6-.5-.4-1.4-3-1.4-2.4-2.4-1.4-1-1.5.6-4.8-.2-2.2-.5-2.5-.7-.4-.8-.9-.8-2.3v-.9c0,0,.3-2,.3-2l.7-.8.5-1.1v-.5c0,0-1.9-.6-1.9-.6l-.2-.3.3-1-.5-1.6-1.4.3v-.4c-.1,0,0-2.6,0-2.6l2.2-3.9v-1c.1,0,0-.4,0-.4l.8-3.8,2.1-3.2,3.8-4,.7-.6h1.8s-.2,1.1-.2,1.1l-1.6,2.4-.4.5-.5.2-.7.6v1.6c0,0,.2.4.2.4h0ZM575.9,91.8h-1.9c0,0-1.9.6-1.9.6l-.5-1.4-.3-2.5v-1c0,0,1.1-1.9,1.1-1.9l1-1.2,1.5-1.5,2.2-1.1h.2c0,0,1.9,2.6,1.9,2.6l.2.8-1.3,3.8-.9,1.6-1,1.1h-.2q0,.1,0,.1Z"/>
  <path id="ID-NB" class="st0" d="M416.3,272v.3c.1,0,.8-.3.8-.3v.2s.2.3.2.3l-.3.4-.3-.2v.3c-.1,0-.3,0-.3,0v-.2c-.1,0-.3-1-.3-1h.2c0-.1,0,0,0,0h0ZM372.2,271.3v.4s-.1.3-.1.3v.7c0,0-.6.5-.6.5l-.4,1.7-1.6,2.4-.2.6-.8,1v.6c-.1,0,.5,0,.5,0l.5.4h.4c0,0-.5.7-.5.7l-.6.2v-.2c-.1,0-.3,0-.3,0l-.5.3h-.6s.5-1.5.5-1.5l-.9.2-.4.4v.5c.1,0,0,1,0,1h-.4s-.2-.4-.2-.4l-1.2-.4h-.4c0,.1-1.1,0-1.1,0l-.3.2h-.4c0-.1-.1-.9-.1-.9h-.3s-.9.1-.9.1l-.2.2h-.4c0,0-.3-.3-.3-.3h-.2s-.1.4-.1.4h-.3c0,0-.6-.4-.6-.4l-.5-.6h-.4c0,0-.5-.1-.5-.1h-.6l-.4-.4-.2-.6.4-.8h.4c0,0,0,.3,0,.3l.8.4h.3l.6-.6h.4s.5.2.5.2l.3-.2v-.2h.3s.2-.2.2-.2v-1.6c.1,0,.1-1.6.1-1.6l-.5-.5-.2-.8.5-.6.8-.5v-.5c.1,0,.4.1.4.1h0c0-.1,1-.6,1-.6l.5-.8.9-.7,1.6-.6h1.1c0,.1.8.4.8.4l.5.3,2.4.5,1.4,1.1v.3h.1ZM387.2,267.7h1.1c0,0,.4.2.4.2v.2c0,0-1.2.9-1.2.9l-.8,1.8-.7,1-1-.6.6-1.2-.2-.4h-.2s.1-.6.1-.6v-.7c0,0,.5-.5.5-.5l.7-.3.6.2h0ZM412.8,269.5h-.7l-.5-.4v-.9s.3-.5.3-.5l.5-.4h.8c0,0,.4.5.4.5v.5c.1,0-.1.7-.1.7l-.4.5h-.3s0,0,0,0ZM393.5,266.8h1.1c0-.1.4,0,.4,0h.5c0,0,1.3.4,1.3.4v.9s.4,1,.4,1l.5.5h.2s.4,1,.4,1l1.2.6h.3s.4-.3.4-.3l.7-.2.3-.6,1.1-.9h.7l.3.3h.9s1.5.5,1.5.5l.5.9v.5c0,0,0,1.6,0,1.6l-.4.6v.4c0,0,.7-.2.7-.2l.2-.4v-.8c.1,0-.1-.4-.1-.4v-.4s.5-.9.5-.9l.3-.4,1-.7h.4l.2.2h1c0,0,1.6.3,1.6.3l-.2.7v.5c0,0,1,1.4,1,1.4v1s-.5.2-.5.2v.4c0,0-.1.2-.1.2l.4.6v.8s.2.2.2.2h.4l.4-.3h.5c0-.1-.4-.7-.4-.7h.4s.2-.1.2-.1v-.4c0,0,.4-.2.4-.2l.3.5v.7c-.1,0-.5.5-.5.5v1.1c.1,0-.5.5-.5.5h-.4c0-.1-.3,0-.3,0l-.9-.3-1.2.2-.5-.6-.6-.4-.5.2v.4c-.1,0-.4,0-.4,0l-.8-.2h-.6s-.2-.1-.2-.1l-.4.2-.2.4-.5.2h.1c0,.1.5.4.5.4h2.8s.8.4.8.4l.2.5-.4.3-1.4.2h-.5c0-.1-.8-.6-.8-.6l-.9-.2-1.2.2-2.2,1-1.1.2-1.2-.5-.3-.7v-.6c.1,0,.8-.8.8-.8v-.4c0,0,0-.3,0-.3l.2-.4-.2-.5-.3-.4h-.1v.2c-.1,0,0,.5,0,.5h.1c0,.1-.1.4-.1.4l-.3.2h-.4c0-.1-.4.4-.4.4l-.6.3v.5c-.1,0-.6.1-.6.1l-1.4,1.4-.9.4-.8-.6h-.3l-.3.2h-.7s-.3.6-.3.6l-.5.2h-.4l-1.1.6-.6-.2-.2-.2v-.3l-.6.2v.3c-.1,0-.7,0-.7,0l-.3-.2h-.8c0,.1-2.4,1.5-2.4,1.5l-2.4.8h-1.3c0,0-1.6-.5-1.6-.5h-1s-1,1.1-1,1.1l-1.7.4-1-.4-.3-.4h-.6c0-.1-.4.1-.4.1l-1.9-.7-.8-.5-.3-.5.2-.3v-.4s0-.2,0-.2l.2-.9h.3s.2-.3.2-.3v-.4c0,0,.7-.1.7-.1v-.5c-.1,0-.8-1-.8-1l.3-.2-.4-1,.7-1.4h.5c0-.1.1-.3.1-.3l-.2-.8.5.3,1.6-.2,2.3-1.6.7-.9h.5c0-.1.3-.1.3-.1l1,.6h.2s3,1.2,3,1.2l.2-.5.5-.4.6-.2h.5c0,.1,1.2,0,1.2,0l.2.3h.4s.5.5.5.5h.6s.3.9.3.9v.2c-.1,0-.8.2-.8.2v.2c0,0,.1.2.1.2l.5.2h.9c0,0-.3-1.4-.3-1.4h.4c0-.1.4.8.4.8h.5s0,.5,0,.5h-.8c0,0,.3.5.3.5v.6c-.1,0,.2,1.2.2,1.2l.3.5,1.5-.3,1.3.5h.4l1.5-1.2,1.4-.3h.7c0,0,.4.4.4.4l1.6-.6-.2-.8h-.4c0-.1-.1-.5-.1-.5h-.6c0-.1-.1.1-.1.1l-.4-.6-.6-.4-.3-.5h-.4c0,.1-.5-.6-.5-.6l-1.7.2-2.9-1.9-.8-1-.9-.8-.2-.4.3-1,1.1-.8h.7s1.7-.8,1.7-.8l.5.4h0Z"/>
  <path id="ID-NT" class="st0" d="M487.5,308.5h.7c0,0,.1,0,.1,0l-1.2,1.4h-.4c0,.1.1.3.1.3h1c0,.1.2,1,.2,1l-.5.6h-.9s-.6.3-.6.3l-.3.4-.8.3-.2.3v.4c0,0-.3.9-.3.9h-.3c0,0-.4.1-.4.1l-.5-.3h-.4s-.5.2-.5.2l-.4.5h-1.8c0,0-.6.5-.6.5l.3.3-.3.5h-.4s-.1-.3-.1-.3h-.5s0-.1,0-.1h-.6c0,.1-.1.5-.1.5l-.5-.3v-.5c0,0,0-.8,0-.8l-.5-.9v-.4c.1,0,1-.4,1-.4h.6s.6-.4.6-.4h.7c0,.1.4-.1.4-.1h.8c0,0,1.4-1.5,1.4-1.5h.5s.5-.3.5-.3l.2-.6h.4s0-.4,0-.4l.8-.9,1.7-.8.2-.8.6.6-.3.2v.2q0,0,0,0ZM462.7,307.4h.7c0,.1.2.3.2.3l-.2,1.3-.3.4-.6.2-.6.6-.7.5h-.6c0,.1-.5-.1-.5-.1h-1c0,0-1.1-.6-1.1-.6l2.6-1.5.2-.8.4-.2.7-.2.8.3h0ZM488.9,302.6h.5c0-.1,0,.3,0,.3l-.8.3v.4c-.1,0-.5.2-.5.2h-.2s0-.3,0-.3h-.4s0,.4,0,.4h.3c0,.1.1.5.1.5v.3c0,0,0,.3,0,.3h-.4c0,0,.1.2.1.2h.2c0,0-.1.5-.1.5h-.4s-.1-.5-.1-.5h-.2s-.4,0-.4,0l-.2.5h-.1s-.2-.4-.2-.4v-.5c0,0,0-.3,0-.3l.4-.6.5-.3.5-.9v-.6c.1,0,1.1-.4,1.1-.4l.2.3v.5c0,0,0,0,0,0ZM429.2,289.2l.4.2.5.9.4.4h.5c0,.1,1,0,1,0h.3c0,.1.4.7.4.7v.5c.1,0,.2,1.2.2,1.2l.4.5h.7s.4.5.4.5h.2l.7-.4,1.7-.4.5.5v.4c0,0,1.8.9,1.8.9l.3.9,1.2,2.2,1,.4,1.1.6.5.7.3,1.1-.2.8-.7.6h-.5c0,0-.6,1-.6,1l-.9.6h-.6s-.4.4-.4.4l-1-.2h-.5c0,.1-.9.6-.9.6v.4c0,0-.3.3-.3.3h-.3s-.8-.4-.8-.4l-.6-.5h-1.5s-.7,0-.7,0h-.4c0,.1-1.1-.4-1.1-.4l-.7-.7h-.4c0-.1-.7-1-.7-1h-.4c0-.1-.1-.2-.1-.2l.2-.4-.2-.6-1-1.2-.7-.2v-.3h-.5v-.5s-1.3-.2-1.3-.2h-.3c0,0-.3-.4-.3-.4l-1.2-.8-.2-.3-.2-.8h-.3l-.3.2-.2-.4-.5-.2-1.2-.2-.8-.3-.9.4-.3.5-1-.5h-.4c0,.1-.2-.2-.2-.2h-1.5c0-.1-.6,0-.6,0h-.1c0-.1-2-.8-2-.8l-.4-.3-1-1.4-.7-.5-.3-.5.6-1.1.6-.5.7-.4,1.5-.4,1.1-.7h.3c0,0,.2.3.2.3l1-.5h.5c0,0,.8.2.8.2h1.1l.9-.3,1.3.3.8-.5h1s.7.5.7.5l1,.2h.3c0,0,.6.2.6.2l.6-.5,1.2-.7.6-.8h.2s.5,1,.5,1l.9,1h0ZM514.3,281.6h.2c0,0-.3.7-.3.7v.5s.2.4.2.4l.5.2h.5s.7-.5.7-.5l.6-.2.3-.3.3-.6.4.5h.3s.6.6.6.6v.9s-.2.9-.2.9l.2.8h-.7c0,0-.6.5-.6.5h0c0,.1-.7-.4-.7-.4h-1s-.3.6-.3.6v.4s.2,1.1.2,1.1l1,.7v.6s.5.6.5.6l.2,1.2h0l-.9.6-.8.9-.2,1.6-.5.6-1.1.5-.5.5-1.5,1.9-.6,1-.7.2-.8.8-1.9,1.1-.6,1.4-1.4,1.1-.6.3h-.5s-3.4-.3-3.4-.3h-.5c0,0-.5.3-.5.3l-.5.5-.2.4-.8.5-.3.4h-1c0,.1-1.2.7-1.2.7l-.2.3-1.3.4h-.8l-.9.2-.5-.3h-.3s-.7.4-.7.4l-.3-.4-1-.4-1.4.5v-.5s.3-.2.3-.2l.4-.8v-.7c-.1,0,.4-.2.4-.2v-.7c0,0,1.6-.6,1.6-.6h.6s.5-.4.5-.4l1-.4.5-.9-.2-.3-1-.4h-.3c0,.1-.6,0-.6,0l-.4.2-.2.4h-.3c0,0-.1-.3-.1-.3v-1.8s.3-.5.3-.5h.3c0-.1.3,0,.3,0l.4-.5v-1.1c.1,0-.3-.7-.3-.7l.5-.2.2-.4v-.6s-.2-1.2-.2-1.2l1.2-1.2.8-.3v-.6c.1,0,.4-.3.4-.3h.2s.5-.4.5-.4l.6-.2.3-.6.5-.2v-.3c0,0,.5-.3.5-.3l.2-.4.3-.3h.9c0,0,.9,1.1.9,1.1h.5s.3.3.3.3h.4c0-.1.2-.6.2-.6l.7-.4h.2s.8.9.8.9l.2.6v.9c-.1,0,1.1-.3,1.1-.3l.2-.5-.2-.5.5-.7v-.2c-.1,0,0-.3,0-.3h.2s.3-.4.3-.4h.5c0,0,.1-.5.1-.5h.3c0-.1-.1-.7-.1-.7l.2-.4v-.6s.2-.2.2-.2v-.3h0,.5c0,.1.9,0,.9,0l.9-.3,1.5-1.2v-.6c0,0,.9,0,.9,0l1-.7,1.1-.2.5-.5.9-.3h0ZM425.3,279.3h-.4s0-.3,0-.3l.3-.3h.2c0,.1,0,.6,0,.6h0ZM423.1,279h0c0,.1-.6,0-.6,0l.4-.2.2.3ZM422,276.4h-.2c0,.1-.1,0-.1,0h-.3s-.1.3-.1.3l.3.3h-.2s-.4-.4-.4-.4l1.1-.7h.1c0,0,0,.5,0,.5ZM422.7,275.6h.3s0,.6,0,.6l.2.7v-.2c.1,0,.6,0,.6,0v-.2s-.3-.4-.3-.4h.4c0,.1.2-.3.2-.3h.4c0,.1.4,0,.4,0h.5s.2.2.2.2v.6c-.1,0-.8.1-.8.1v.4c-.1,0-.3.2-.3.2h-.2v-.2s-.2,0-.2,0l-.2.4v.4c0,0,.4.2.4.2v.3c.1,0,.1.3.1.3l-.6.7h-.3s0-.4,0-.4l-.3-.3-.7.3-.2-.7.3-.9h.2c0-.1.4,0,.4,0v-.5c-.1,0-.4.2-.4.2h-.1c0,0,.2-.2.2-.2v-.4s-.4-.8-.4-.8h.3c0-.1.2,0,.2,0h0ZM470,272.4l.6.3v-.2c.1,0,.2.2.2.2v.5c-.1,0-.6.4-.6.4l-.6-.2-.4-.4v-.5s.7,0,.7,0h0ZM419.7,272.8v.5s.2.1.2.1l1.1.2.4-.2v.6s.1.3.1.3h-.1s-.2-.3-.2-.3v.2c0,0,0,.3,0,.3v.7h.2c0,.1-.9.2-.9.2v-.5h-.4c0,0,0,.2,0,.2l-.3.3h-.4s.2.4.2.4h.2s.2-.3.2-.3h0c0,.1-.2.4-.2.4h0c0,.1-.1.4-.1.4h-.4c0,0-.3.4-.3.4l.4.5v.4c-.1,0,.3.2.3.2l-.5.2-.6-.5-.5.2v-.5c0,0,.5-.3.5-.3v-.6c0,0,0-.2,0-.2l-.4-.3h-.2c0,0,.2-.4.2-.4l-.2-.2.3-.5h.2s.4-.2.4-.2v-.4h.2s0-.3,0-.3h-.3c0-.1.4-.4.4-.4v-.2s-.2-.1-.2-.1v-.5s.5.1.5.1v-.4c0,0,.4.4.4.4h0ZM483.5,272.4v.3c0,0-.2.3-.2.3l-1.3.5h-.5s-.4-.2-.4-.2l-.7.6-.8,1.5-.5.3h-.4s-.3-.5-.3-.5l.2-1,1.1-.6v-.5c0,0,.5-.4.5-.4h.4s.4.2.4.2l.3-.2h1.4l.4-.2h.4q0,0,0,0ZM458.6,270.2h.2s.2.5.2.5v.3c-.1,0-.4.1-.4.1l-.8-.2h-.2c0,.1,0,0,0,0h.2c0-.1.2-.7.2-.7h.3c0-.1.2,0,.2,0h0ZM484.4,269.1h.1c0,0,.2-.2.2-.2h.2s.4.3.4.3h.6s.6.4.6.4l-.3.5h-.2c0,0,0,1.1,0,1.1l-.3.6h-1c0,.1-1,0-1,0l-1.9.4-.4-.2h-.8c0,.1,0-.6,0-.6l.6-1.1,1.2-.7.7-.6h.7c0,0,.4-.2.4-.2h.1v.2h0ZM502.6,271.1l-.8,1v1.1c-.1,0-1.5,1.2-1.5,1.2h-1c0,.1-.2,0-.2,0l.2-.8-.5-1.3h-.8s-.7.5-.7.5v.2s-.6-.2-.6-.2v-.2s.5-.5.5-.5l.3-1,1.6-.9.5.3v.7s.2.1.2.1h.4c0-.1.6-.8.6-.8l.2-.5.7-.4.7-1.2.4-.4h.6s.2.2.2.2v.4c0,0-.4.8-.4.8v1c0,0-.1.4-.1.4l-.6.3h0ZM495.3,268.6h1c0,.1.4.8.4.8l-1.5.5-.6-.2-.7.3-.4.5v.5c0,0-.7.6-.7.6v.3c0,0-.5.5-.5.5h-.4s0-.3,0-.3h-.1c0,0-.4,0-.4,0l-.5.6-.5.2v.4c-.1,0,.2.5.2.5v.5c.1,0-.4.6-.4.6h-.6s-.3-.7-.3-.7h-.2c0,0-.7.2-.7.2l-.5.7h-.4c0,.1-.8-.2-.8-.2l-.2-.4-.5-.3-.4.4h-.9c0-.1-.2.1-.2.1l-.4-.3v-.4s.4,0,.4,0l1.3-1.1.4-.9.8-.3.2-.2h.8c0-.1.6-.6.6-.6l-.7-.8h-.4c0,0-1,.1-1,.1l.6-.7.5-.2.3.2h.6c0,0,.5-.4.5-.4h.6c0-.1.6,0,.6,0h.1c0,0-.2.3-.2.3v.5c-.1,0-.9.9-.9.9v.3s.9.3.9.3l.7-.6v-.3s-.3-.1-.3-.1v-.4s.5,0,.5,0v.4c0,0,0,.2,0,.2l.6-.5-.2-.7h-.4v-.5h.7c0,0,.2,0,.2,0v.4s.7.1.7.1h.1c0-.1-.1-.6-.1-.6l1.5-.9,1,.8h0ZM507,267.1h1.4c0,.1-.2.4-.2.4v.7s.2.2.2.2l.8-.5,1.7-.3,1.3.3h1.5s.8-.3.8-.3l.8.2h.6c0-.1.9-.1.9-.1l.7,1.4v1.1c0,0,0,.5,0,.5l-.4.3-.9.2h-3c0,.1-1.6.7-1.6.7h-1.1c0,0-1.4,0-1.4,0l-1.1.7-.9.2-.3-.3h-.6c0-.1-1.2.6-1.2.6h-.2s0-.3,0-.3h-.9c0,.1-.4-.3-.4-.3v-.4s.1-.3.1-.3l1-1.1v-.4s.5-.1.5-.1l.8-.6h.6c0,0,.5-.4.5-.4h-.2c0-.1-.7,0-.7,0l-1.6.8v-.5c0,0,0-.4,0-.4l1-1.3.4-.4.8-.2h0ZM479.5,266.8l.8.5v.4s-.2.6-.2.6l.3.3v.6s.7.7.7.7v.4s-.7.7-.7.7h-.3s-.7-.3-.7-.3h-.2c0,0-.6.9-.6.9l.2.6v.6c-.1,0-.6,0-.6,0l-.5-.4-.6-.2h-.2c0,.1.1,1,.1,1l.9.9v.6s-.2.4-.2.4l-.9.3h-.8s-.1.4-.1.4l-.2-.2h-.8l-.8.5h-.3c0,0-.2.1-.2.1h-.5c0,0-.6.8-.6.8l-2,.6h-.8c0,0-.5-.1-.5-.1l-1.1.3-.7-.2h-.7c0,.1-.4-.2-.4-.2h-1s-.4.2-.4.2l-.3.4h-.2s-.5.5-.5.5l-1.9.7h-1s-.2.3-.2.3l-1.2.5h-.9c0,0-.5-.5-.5-.5h-.5c0,0-.2,0-.2,0v.5c0,0,0,.4,0,.4h-.2c0,0-.3,0-.3,0l.3-1-.6-.2-.5-.4h-.7c0,.1-2.5-.2-2.5-.2h-.2s-.2.6-.2.6v.9c0,0-.4.4-.4.4l-.6.2-.7-.4h-1.4c0,.1-.3,0-.3,0l-1.6.6-.9.6h-.4s-1.5-.5-1.5-.5l-.9-.8-.3-.8h-.2c0,0-.8,0-.8,0l-.3.8h-.5c0,.1-1-.3-1-.3h-.8c0,0-.9-1-.9-1h-2.6s-.8.2-.8.2h-.2c0-.1-1.2.5-1.2.5l-.3-.2-.3.2-1.1-.3-.8-.8h-.3s-2.2.6-2.2.6h-.9c0,.1-.4,0-.4,0l-.4.4v.3h-.2c0,0-.4,0-.4,0v-.3c.1,0,0,0,0,0v-.5s-.8,0-.8,0v-.3c-.1,0-.7-.4-.7-.4v-.4c0,0,0-.2,0-.2v-.4c0,0,0-.2,0-.2l.2-.5v-1.1s-.2-.1-.2-.1v-.3c0,0,.6-.5.6-.5h0c0-.1.5-.3.5-.3l.3-.4v-.5c0,0-.3-.4-.3-.4v-.4c0,0,.4,0,.4,0v.6s.3,0,.3,0v.2c.1,0,.6-.3.6-.3h.2s.4-.4.4-.4l.5.5.2-.4h-.2c0-.1,0-.4,0-.4l.4-.6h.5s.2-.1.2-.1h.2s.1.4.1.4l.2.2-.2.4h.4s.2-.4.2-.4v-1s.6.3.6.3l.2-.4h.1l.3-.7h.2s.5-.1.5-.1l.2-.2h.5s.7,0,.7,0l.8.2.7-.2v-.5c0,0,.3-.2.3-.2l.5.4v.3s.4.2.4.2l.9-.3.5.3h.7s.2-.2.2-.2l-.2-.3v-.2c.1,0,.9.4.9.4l.7.9h.5s.4.3.4.3h1.2c0-.1.9.1.9.1h1.1s.5-.2.5-.2h.5c0,0,0,.4,0,.4h.1c0,.1.5.1.5.1v.4l.2.4h.7c0-.1.6.2.6.2h.6s.4.3.4.3h.4c0,0,.8.4.8.4h.8c0,.1.5.3.5.3l.8,1.2,1.2.6.9-.5.2.3h.3c0,.1.2.7.2.7l.5-.6.6-.2-.2-.2v-.4s.2,0,.2,0l.6.4-.2-.4v-.8c.1,0,.3-.2.3-.2h.4c0,.1,0,.5,0,.5h.4c0-.1.2.2.2.2l.9-.3h.9c0,0,.3.3.3.3l.5-.2.3-.3.3.2h.9s.3-.1.3-.1l.5-.7v.5c0,0,.5-.4.5-.4h.5c0-.1.2,0,.2,0l-.3.8v.7c0,0,1-.1,1-.1l.3.4.3-.2,1,.5,1.2,1.2,1.1.3.6-.4h.5c0-.1,1.5-.3,1.5-.3h.4c0,.1.8-.9.8-.9v-.4s-.6-.5-.6-.5l.2-.3,1.1-.3.3-.5h.3c0,0,.1-.6.1-.6h.3c0,0,.3-.2.3-.2h.5c0,.1,1.2-.4,1.2-.4h.5c0,.1.8-1,.8-1h1.1c0-.1.4-.4.4-.4l.4-1.1.4-.3-.6-.3h-.6s-.9.3-.9.3l-.4.7-1-.2h0c0-.1.5-.5.5-.5l.4-.7v-.8l.8-.2.6-.5,1.1.7h0Z"/>
  <path id="ID-PA" class="st0" d="M755.6,272.2h-2.5c0-.1-2.8-.6-2.8-.6l-.4-.2-.2-.6v-.2c0,0,2.8-2.4,2.8-2.4l1.7-.5h.2s.3.9.3.9l1.3,2.7v.3s-.4.5-.4.5h0ZM750.7,269.4l-2.6,2.1-1.3.6-1.4.3h-.5s-.4-.4-.4-.4l-.7-.2-6-.4-2.8.7-.5.4h-.5c0,0-.2-.4-.2-.4v-.5c0,0,1.7-4.2,1.7-4.2l3.1-5.9,2-3,.5-.6,3-2.1,2.4-1,4.8-.9h2.1c0,.1.8.3.8.3l.4.3,1.1,1.8.6.6,1.3.2.6,1-1,2.7-1.2,1.9-.5,2.7-.6.7-1.2,1.1-2,.4-1.1,1.6h0ZM751.1,242.9l.6.5,1.3.2.8,1.2-1,.6-.8-.3-1.2-1.5v-.5c-.1,0,.2-.2.2-.2h0ZM710.7,156.1l2.9.6,6,.4,1.6.7v.2c0,0-.3.5-.3.5l-3.2.6-2.5.8-5.6-.5-4-1-.9-.6-1-.4-2.5-.8-1-.2h-1.1c0,0-2.1-.3-2.1-.3l-1.1-1.3.9-.3,1.2.4,11.1.8,1.9.5h0ZM755.2,160.8h1.2s2,.7,2,.7l6.2,2.9,6.5,3.4,1.8.3,2.5-.3,1.3-.6h1c0,0,.2.6.2.6l.7.9,1.9.9.9-.2v-.3c0,0,1.8,0,1.8,0l2.7.4,1.6.6.3.3v.4c.1,0-.1.6-.1.6l-.5.5v.4c-.1,0,.4.4.4.4l1.7-.5h2.5c0-.1.6,0,.6,0h0v64.2h-.7c0,0-.7,2-.7,2l.4.5v.3c0,0-1,1.8-1,1.8l-.5.5v.8c0,0,.1,1.9.1,1.9l.5,1.2.8.8h.5c0,0,.4-.2.4-.2v38.8s-1.1-.7-1.1-.7l-1.2-.3-.6-.4-1.5-1.9-2.6-2.4-1.8-3-4.8-4.1-3.1-2.2-1.2-1.3-.2-.3v-.7c.1,0,1.5-1.1,1.5-1.1l1.2-2.3.2-.9-1.6.7-.3,1.2v1s-1.2.7-1.2.7l-.9.3h-3.5s-1.6.2-1.6.2l-1.6.9-1.9.5h-.9s-.7,0-.7,0l-.9-.5-1-1.4-2.3.9-1.9,1.4-.6,1.3h-.5c0,0-1.1-2-1.1-2l-.2-.9,1.2-1.6v-2.2c.1,0,.3-.2.3-.2l1.2-.6.2-.8v-1s.9-2.2.9-2.2l.7-.7v-.5s-.4-.4-.4-.4l-1.1-.4-1.2-.9-.6-1.4-.6-.8-1.7-1.1-1.6-.8-.2-.4h.2c0-.1,4.5,0,4.5,0l1,.6,1,.2,2.2-.2.8-1.3-.8.4-.2.3-2.1.2-3.4-1-1.7-.8-2.9-2.6-.3-.4v-.6s.6-.5.6-.5h.8s1,.3,1,.3h.7s1.1-.7,1.1-.7l1.8-.2,1.3.4,1.1,1.1,1,.6h.5c0,.1.9,0,.9,0l-1-.2-.7-.4-1.2-1.1-.5-.3-.8-.3h-1c0-.1-3.5-1.9-3.5-1.9l-.3-1.1.7-.2-.5-.7-3.4-3.2-.8-1-.5-1.1-.3-1.1v-.9s-.4-1.4-.4-1.4l-1.2-2.2v-2s-1.5-.4-1.5-.4l-.8-.7.4-.6,2.8-1.4h-.2c0-.1-.5-.2-.5-.2l-1.6.2-1,.6-1.3.4h-.2c0-.1-.3-1.9-.3-1.9l.4-3.3v-.5c-.1,0-.6.9-.6.9l-1.5-.6-3-1.9-.5-.6-1.5-1-.9-.2-.6-.4v-.2c0,0,.3-.4.3-.4h-1.3s-1.9-.9-1.9-.9l-1.8-1.3-.6-.7-1,.4-3.6-1-3.1-.4-.4-.4-2.9-1.3-4.7-2.5h-1.8s-3.9-1.5-3.9-1.5l-.5-.4-.6-.9-.8-.3h-2.2c0-.1-1.3,0-1.3,0l-5.2-1.1h-1.7c0,.1-1.7.5-1.7.5l-1-.3-3.7-2.1-1.6-.7h0l1.6-2.4,1.1-.8.7-1.4,1.1-1.6,2.3-2.8-.9-.4h-.5l-1.2-.6-2.9-.9-3-1.2-6.5-1.9-2-1-1.4-.4,1.1-2.5,1-1.2,1.6-1,.2-.8v-1.1l1.5-.8,2.5-2.3h0l.6,2.5.5.4h.7c0-.1.7-.6.7-.6v-.5c0,0,.4-.4.4-.4h.5s.1.7.1.7l-.2,1.2-.5.4-.2,1.4,1.1,2.1,2,1.5,2.1.6,3.7.4,2.2-.4,1-.5.7-.6.3-.6v-.4s.6-.8.6-.8l.5-.3,1.4-.4.9-.7v-.3s-.5-.3-.5-.3l.4-.5,2.5-1.1.5-.8.3-2.7,1.2-1.5h.4c0,0,2.3-1.1,2.3-1.1l1.2-1,.4-.8,1.1-2.9v-.7s-.1-.8-.1-.8l.4-.5.9-.6h1.3c0-.1.9,0,.9,0v.3c0,0,.2.1.2.1l1,.2h1.1c0,.1,1.5,0,1.5,0l1.5-.8,2.7-1.2,1.3-.4h.8c0,.1,1.3-.1,1.3-.1l.8-.5v-.3s-.6-1.8-.6-1.8l-.6-.3-.9-1,.2-1.2,1.2-.6,1.2-.3,1.4-.6,2.5-1.3.4-.5,1.5-.8,4.2-1.5h.5s1,.3,1,.3l.8.9,1.4,1.1,6.1,2.2,4.2,1,1.5,1,.8,1,1,.8h.4c0,0,0,0,0,0ZM687,146.6h-1s-1.1-1.7-1.1-1.7l.2-1,.5-.7h.8c0,0,.7.3.7.3l1.1,1.1v1c0,0-.6.7-.6.7l-.6.2ZM696.6,138.6h1.8s1.5.3,1.5.3l1.6,1.1,1-.8h.5c0,0,.7.3.7.3l3,2.6,2.2,3.2,1.2-.2,1.7.8.4.4-.8.7-1.3.7-1.8.4h-1s-.9-.7-.9-.7h-.5c0-.1-1,0-1,0l-.8.3h-.6c0-.1-.9-1-.9-1l-.8-3.2v-.9s-.5-1.2-.5-1.2h-.5c0,0-1.8.8-1.8.8l-1.8-1.5h-.7c0-.1,0,.4,0,.4l-.4-.2-1-.9-.6-1.3.3-.5,1.7.6h0Z"/>
  <path id="ID-PB" class="st0" d="M663.6,200.1l.8.9-5-2.2-.2-1.1.5.2,1.2.9,2.7,1.4h0ZM605.2,162.5h-1.2s-3.6-1-3.6-1l-3-1.6-.3-.4.6-.5,3.5-1.3,1.4-.7,5.4-1.1v.5c0,0,1.4,2,1.4,2v2.6c0,0-.9.6-.9.6l-3.3.9ZM600.7,147.9l-1.7.6-1.6-.5v-.3c0,0,.4-.3.4-.3l1.8-.5,1.5.5-.5.6h0ZM617.4,142.4l.6.8h1.1c0-.1.7-.4.7-.4l.7,1v1.9s-.6,2.7-.6,2.7l-.7,1.6-.2.3h-.4c0,.1-1.5-.2-1.5-.2l-2-1.7-.3-1-.8-1.1.3-.5-.3-.7-.4-.6-.6-.2v-.2c0,0,0-.2,0-.2l.4-.2,3.4-1.1h.7ZM617.7,140.7l-.5.8-1.6.7-2.2.5h-1.5c0,.1-1.8,0-1.8,0h-.6c0,.1-.5.4-.5.4h-.2c0,0,.9-1.1.9-1.1l.7-.5h4.2c0-.1,1.3-.4,1.3-.4l.6-.7h.8l.5.4h0ZM612.3,136.4l-2.4-.3-.2-1,.4-.3,2.3-.7.8.3.6.4v.3s-.4.8-.4.8l-1.1.5h0ZM663.7,140h3c0,0,0-.5,0-.5h3.9c0,.1,2.2,1.9,2.2,1.9l-1.4,2.3,1.7,3.2,1.3,1.2,1.3,2.4-.8.9-.2,2.5-2.3,2.1.6,3.5.4.9-.2,2,.5,4.6,1.1,1.9.5.2,1.2,1.1,2.5,6.1h.5s.5-.4.5-.4l-.9-3.6v-1.2s.2-.6.2-.6l.9-1h.5c0,.1,1.2.9,1.2.9l.3.9v4.3h0l-2.5,2.3-1.5.8v1.1l-.2.8-1.6,1-1,1.2-1.1,2.5,1.4.4,2,1,6.5,1.9,3,1.2,2.9.9,1.2.6h.5l.9.4-2.3,2.8-1.1,1.6-.7,1.4-1.1.8-1.6,2.4h0l-1.2-.5-2.7-2.2v-.2c0,0,.6-2.8.6-2.8l.4-.2,2.5.3,1,.4h.3s.7-.5.7-.5v-.2s-1.2-.2-1.2-.2l-3.9-.2-1,.7-.3.9-1.3.3-.9-1.4-.6-.6-1.2-.3-.5,1.6-.6.3-1.6-.9-.5-.4-.3-.7v-.5c0,0,.5-.3.5-.3v-.3s-.2-.6-.2-.6l-.6-.6h-.2c0-.1-1.7.8-1.7.8l-1.8-.9-1.6-2.8-.6.3v.2c0,0,0,1,0,1h-.4c0,.1-1.2-.7-1.2-.7l-1.1-2.2v-.6c-.1,0,0-.2,0-.2l.9-.6v-.2c.1,0,.2-1.1.2-1.1l-.2-1.3.4-1.4,1.2-1,1.3-.9v-1.3s-.5-.8-.5-.8l-1.7,1.5-1.2,1.5-.3,2.6v2.1s-.6.1-.6.1l-1.1.7.4.4.4.9v.6c0,0-1.8,1.3-1.8,1.3l-1.5,1.5v.3c0,0,.1.9.1.9l.6.5.2.6-2.4,2.5-1.3,1.1h-.7c0,0-2.6-.2-2.6-.2l-.3.2-.7.8-1.4-.3-1.1-1.5-.5-1.3.2-.2-.2-.6-1.2-3,.6-1.5,1.8-.7.5-.4v-.3c.1,0-.7-1.4-.7-1.4h-.3c0,0-.3,0-.3,0l-.5-.4-.4-1.4.3-.9v-.3s-.4-.5-.4-.5h-.5c0-.1-.6.1-.6.1v.9s-.2.1-.2.1h-.2c0,0-.8-.3-.8-.3l-1.2-1.6v-.9c0,0-.7-1.2-.7-1.2l-1.6-1.2-2.6-1.6-.7-.2h-1.4l-1.9.5-2.1-3.1.2-.2,3-1.4,1.2-.2h1.9c0,0,3.3.4,3.3.4l1.1.3,1.2.8.4.5,1,.4,2.1-1.5,3-4,1.5-.9.9-.3,1.5-.2,1.1.5,1.3,1.3,2.1.8h.7s1-.5,1-.5h.8c0,0,.5.8.5.8v.9c0,0,0,1.4,0,1.4l.2-.3.3-2.5v-.6c0,0,.1,0,.1,0l.4.2,1.1,2.2h.2c0,.1,0-1.9,0-1.9l-.3-.8-.4-.2,1-1,1.3-.6.7-1v-1.6s-.2-.4-.2-.4l-.4,1.1-1.5.5h-.3s-.6-.8-.6-.8v-.2c.1,0,2.2-.8,2.2-.8l.6-.5-.2-1.1-1,.2-4,2.1h-1.8c0,.1-1.8,0-1.8,0l-.7-.4-1.8-.3-1.7.2-4.1,1.3h-1.1c0,0-1.4-.7-1.4-.7l-.6.2-1.6.9-.9-.4-.2-.2-.2-.8-.4-.5h-.3c0,0-2,.4-2,.4l-1.1.7-1,.2h-.7c0,0-2.5-2.1-2.5-2.1l-.8-.3-1.1-.8-1.2-2-.7-1.6v-1.1c0,0,.7-.8.7-.8l-.2-.9-1.3-1.1-2.8-1-.3-.4v-.3s-2-.9-2-.9l-5.5-1.8.2.4.8.5v.4s-.7.6-.7.6l-1.4.5-.5-.9-1.2-.4h-1.1c0,0-1.5-.8-1.5-.8l.8-1.2.4-1,.4-.5,2.1-.4,1.2-2.1.6-3.1-.5-1.6,4.5-1.5h.4c0,0,0,.3,0,.3l.7.2,3.4-.6,1.7-.6.8-1.2,3.2-2.7,1.2-.8,1.6-.6,2.8-.7,4.8.4,1.8.9,5.1,2h1c0,0,3.5,3.1,3.5,3.1l1,.3,2.5.3h0ZM617,127.4l2.8.8,1.7.2,2.8,1.6.2.6.2,1.2-.4.9-.7,1-1.5-.8h-1.1c0-.1-1.2.4-1.2.4h-1c0,0-.5-.3-.5-.3l-1.2-1.6-1.5-.6-1.4-2.1-.4-.3h-1.3c0,.1.2,1,.2,1l1.8,1.9,1.7.8,1,.2.6.4.4.7-.5.8-1.2.6-1.5.2-.6-.2-.3-.4-.5-2-1.6.4-.8.7-.5-1.9-1.5.4h-1.2c0-.1-2-.8-2-.8l-.4-.3.3-.2.4.2,2.1.2.8-.4-.5-.8h-1.1s.1.6.1.6l-.8-.2-.3-.6v-.6c.1,0,1.5-.3,1.5-.3h1.5l3.7-.6.8-.3.4.3h.8c0,0-.3-.3-.3-.3l.6-.3h.7c0,0,.9.1.9.1h0ZM594.1,130.7h-.3c0,.1-.9-.9-.9-.9l-3.4-3.3v-.2s.2,0,.2,0l.6.4,3.5,2.8.4.7v.3s-.2.2-.2.2h0Z"/>
  <path id="ID-RI" class="st0" d="M138,118.3l-.6-.2-.3-.8.5-1.7.5-.5h.5c0-.1.8.5.8.5l.4.6v1.4c.1,0-.3.4-.3.4l-1.5.4h0ZM128.3,110h.4c0,0,1.2-.3,1.2-.3h.8c0,0,2.8,1.7,2.8,1.7l1.8,1.4.2.3.2.8-.2,1.1-.6.3-1.2-1.2-1.1-.5h-3.5c0,0-1.7.3-1.7.3h-.5s-1.1-.6-1.1-.6l-1.3-1.2.5-.8h.9c0-.1.2-.3.2-.3v-.7l-.5-1.1v-1c0,0,.3-.4.3-.4h.6c0-.1.6.2.6.2l1,1.3-.2.5s.3.4.3.4ZM135.4,109.2l2.2,2.5v.5c0,0-.3.4-.3.4l-.6.2h-.5c0,0-2.4-1.8-2.4-1.8l-3.2-1.6h-.6c0,0-.6.1-.6.1l-.6-.5.9-1.7.5-.2h.7l1.5.4,1.5.7,1.4,1h0ZM124.4,111.2h-.4l-1.5-1.4-.4-.3-.4-.8-.7-3.5v-1.9s.2-.2.2-.2l.8-.2h.5c0,.1,3,2.8,3,2.8l.3.5v.3s-.5,1.7-.5,1.7v1.1c0,0,.4,1.1.4,1.1v.3c0,0-1.2.7-1.2.7ZM126,102.2l.2,2.9-.2.3-.5-.2-2.6-2.5-.8-.3-2-.2-.8-.4-1-.9-.9-1.5.3-.2h.8s1.8.7,1.8.7l2.9.4,1.8.5.8.4s.3.9.3.9ZM110.6,97.7h-.8s-1.1-.3-1.1-.3l-.4-.2-.4-.5-.9-2.5v-1.3c0,0,.3-.7.3-.7l.6-.5,3.5-1,.7.2.3.3,1.3,1.7v.9c0,0-.7,1-.7,1v1.3s-.2.5-.2.5l-1.3,1-.7.2h0ZM93.7,90.6h.8c0-.1.9.5.9.5l.8.2.5-.4-1.1-.7-.3-.6v-.8c0,0,.1-.4.1-.4l.9-.6,2.4-.3,2.5.3v.5c-.1,0,.2.8.2.8l3.4,2.3.7.8.3.8v1.3s.7,2.1.7,2.1l.7,1.1,2.3,1.1h.8c0,0,1.7-.4,1.7-.4l1.2.3,4.5,3.8,2,1.1,1.1,3.1-.2,1.7.4,1.4.4.6,3.3,3.1.7.5,1.4.6h.5c0,0,2.4-.2,2.4-.2l2.6.2.7.3.5.4,2.6,3.1.2.5v.7c-.1,0-9,4.6-9,4.6l-.7-.4-.7-.8h-1s1.9,1.3,1.9,1.3l.8.2,1.2-1.1,4.2-.8,4.5-2.5.3-.2.7-1.1,2.3-.8h.6c0,0,1.2.6,1.2.6l5,3.8.3.6,1,4.3-.6.2-3,.2-.3.4v.9c-.1,0-2.8,1.8-2.8,1.8l.2.3h.3c0,0,.7-.6.7-.6l.7-.2h.6c0,0,0,.2,0,.2l-.4.5,1.6.2v.2c0,0,1.7.5,1.7.5l.9,1.3h-.6c0-.1-.9,0-.9,0l-1.7.7-.2.2.2.3-.3.7-2.6,1.8-.4,2.1v.4c.1,0,1.1,1,1.1,1h-1.2c0,.1-.8.6-.8.6l-.4-.3-3.6-.6-.8.2h-1.2c0,0-.9,1.3-.9,1.3l-.8,1-2.1,1.5v.4c-.1,0-.6.4-.6.4l-.5.9h-.7c0,0-.5.7-.5.7h-.3c0,0-.6-.4-.6-.4h-.7c0,.1-.8-.2-.8-.2h-.8s-.5-.8-.5-.8h-1.2c0-.1,0-.8,0-.8l-1-.5-.3-.8h-.6s-.9.5-.9.5h-.4s-.2-.1-.2-.1v-.3l-.4-.4h-.4s-.4.3-.4.3l-.9-.4-.4.2-.4-.3h-.4c0,0-.5.2-.5.2v.4c-.1,0-.4-.2-.4-.2l-.6.3-.2.6-.8.2v.3s-.6-.1-.6-.1h-.2c0-.1-.9-.1-.9-.1l-.5-.3-1.3-.4v-.3s-.3-.2-.3-.2l-.7-.9-1.1-.7h-.4s-.2-.4-.2-.4l-1.4-.9v-.6c0,0-.6-.1-.6-.1l-.4-.3.2-.3h0c0,0-1.7-.7-1.7-.7l-.4-.6-.7-.3v-.4c-.1,0-1.2-.5-1.2-.5l-.3-.4h-.2c0,0-.3,0-.3,0l-.7-1.5.2-.4v-.7s-.8-.6-.8-.6h-.4c0,0-.9.2-.9.2h0c0,.1.2.2.2.2l-.3.5-.6-.4h-.5s-.2-.4-.2-.4v-.6c0,0-.6-.3-.6-.3l-.3-.5h0v-.4c-.1,0,0-.4,0-.4h0l-.5-.9v-.2s.2-.2.2-.2l-.3-.9v-.3s.5-.4.5-.4h.2s.3.4.3.4l.6-1v-.8c0,0-.3-.9-.3-.9v-.5l.3-.8-.4-1-.2-.2h-.3c0,0-.7.1-.7.1l-1.1.9-.2.4h-1.1s-2.8-.8-2.8-.8l-.8-1.7-.4-.3-.4-.2-.9.5h-.3l-.2-.4v-1.2l-1.3-2.6v-.9c0,0,.9-1.3.9-1.3l-.5-.7-1.1-.4h0l-.9-1,.3-.2v-.2c-.1,0,0-.9,0-.9h-.4s-.4-.4-.4-.4v-.2h.8s.2-.3.2-.3l.2-.6-.3-1-.4-.2v-.4s.6-.3.6-.3h.6c0,0,0-.4,0-.4l-.6-.4-.3-.5-.2-1.6-.5-.9h-.2s-.2-.2-.2-.2v-.4s.3-.3.3-.3l3-.2v-.3h.5c0-.1.6,0,.6,0l.3-.2v-.4h.8l.8-.7v-.5c.1,0-.1-.2-.1-.2v-.4c0,0,.5-.7.5-.7v-.5c0,0,0-.3,0-.3v-.4c.1,0,0-.3,0-.3h-.6c0-.1,0-.6,0-.6l.3-.3-.2-.8-1.9-.3-.3-.3v-.4l.5-1.2.2-3,.5-1.7-.2-.9-.7-1.6-.2-1.3v-.7s.4-1.2.4-1.2l.8,2.5.6,1.2,1.3,1.4,1.5,1.2.9.5h0Z"/>
  <path id="ID-SA" class="st0" d="M517.8,102.6l-.9,1.2-.8,2.5-1,1.8-1.5,2.1-1.3.6-1.5,1.1-1.2,1.2-1.5,2.6-.4,1.1-1.9,2.3-2.1,1.1-1.3.3h-1s-4.2.7-4.2.7l-3,.7-2.2.3-1-.3h-2.2s.3-1,.3-1l.8-1.4v-1c0,0,0-1.1,0-1.1l-.3-.8-.5-.6-2-.3-1.2-.9-.6-.5-.3-.8v-.5s-.7-.7-.7-.7l-.9-.2-.5-.4-.2-.8h2.3c0-.1,2.3.4,2.3.4l3,1h.3s.6-.3.6-.3l3.8.9h1.6c0,0,1.2-.8,1.2-.8l5.3-2.4.4-.5.8-2.2,1-.4,2.7.2h.2c0-.1.4-.7.4-.7v-.6s-.6-.3-.6-.3h-.6s-.3-.4-.3-.4v-.4s.4-.8.4-.8l1.1-.8,1,.4h.7c0,0,2-1.2,2-1.2l.2-.5-.5-1.1v-.3s2.7-2.1,2.7-2.1h1.1c0,0,1.7.4,1.7.4l.7.6-.2.5v.5c0,0,1.5,1.2,1.5,1.2l-.3.8-.6.3h-.7c0,0-.3.3-.3.3ZM522.5,81.9h-.2c0,0-.5-.1-.5-.1l-.4-1.5.5-1.2.5-.2.5.3v.3c.1,0,0,.3,0,.3l-.8.8v.4s.4.6.4.6l-.2.2h0ZM525.6,64.9l-.2.6,1,1.3h.2c0-.1.4.2.4.2v1.3c.1,0-.5,1-.5,1h-.2c0-.1-.2,0-.2,0v.6c0,0-.2-.1-.2-.1v-.3s-.3-.6-.3-.6h-.5s-.2-.3-.2-.3h-.4c0-.1,0-.4,0-.4h-.3c0,0-.3-.6-.3-.6v-.5s.4-1,.4-1v-.2h-.4v-.4c-.1,0,.2-.1.2-.1h0c0-.1-.3,0-.3,0l-1.2-.7-.2-.4v-.9c0,0,.8-.3.8-.3l1,.2,1.5,1.8ZM545,61.7h-.3s-.2-.2-.2-.2l-1.3-2.8v-1c-.1,0,.1,0,.1,0l.4.3,1.4,1.9v.5c0,0-.2,1.5-.2,1.5ZM545.8,58.5l-1.1-.2-.2-1.3.7-.6,1-1.8v-.4l-.2-.2-1-.2-.2-.2-.3-1v-.6s.5-2.5.5-2.5l.3-.6,1.3.2.8.7,1,3.6-.8,1.2-1.3,3.2-.6.6h0Z"/>
  <path id="ID-SB" class="st0" d="M90.9,179.9v.6s.2.5.2.5v.2c0,0-1.1.1-1.1.1l-.5.2,1.4,2.7v.2s-.4.3-.4.3l-.3-.2-.3-.7h-.2s-.4-.3-.4-.3l.2-.2-.2-.3-.8-.3.2-.7-.2-.5v-.6c0,0-.5-.8-.5-.8h-.6c0,0-.7-.7-.7-.7l-.7-1.2v-.2s.3-.6.3-.6l-.5-1.9v-.3c0,0,1.1-.4,1.1-.4l1.4,1.7.9.5,1.2,1.5.5.4v.8q0,0,0,0ZM85.4,175.4v.4h-1v.2c0,0-.6-.5-.6-.5l-.2.5h-.2c0,.1-.4-.2-.4-.2v-.3c.1,0-.2-.4-.2-.4l.3-1v-.9l-.4-.8v-.6s-.4-.3-.4-.3l.3-.3v-.8c0,0,.1-.3.1-.3h.5c0,.1.7,1.1.7,1.1l1,.6.3.4.7.3.5,1.1.4.4-.2.8-.6.2-.5.4h0ZM77.9,164l.7,1.4.5.5v.4c0,0,.7.3.7.3l.4.7.3.7v.2h-.2c0,.1-.2,0-.2,0v-.4s-.2-.3-.2-.3l-.2.2h-.4l-.2-.5h-.8l-1-.8-.5-.2h-.9c0,.1-.3-.7-.3-.7h-.3c0-.1-.7-1.4-.7-1.4v-.2s.3-.2.3-.2l.4.2h0c0-.1-.3-.5-.3-.5v-.9c-.1,0,0-.4,0-.4l.5-.4h.6l1.3,1.1s.2,1,.3,1ZM64.4,143.5l.3,1h-.2c0,0-.2-.4-.2-.4h-.1c0,.1.4,1.4.4,1.4l1,.8v.8c0,0,.7.8.7.8v.4s.5.7.5.7v.3c-.1,0,.4.7.4.7v.6s1.1,1,1.1,1v.3c.1,0,.2.7.2.7l-.3-.2h-.3s.4.6.4.6l.7.3v.3c0,0,0,.4,0,.4l.4,1,.7-.2.5.7v1.5c0,0-.2.5-.2.5l-.6-1.2h-.1s.2,1,.2,1l.3.6-.4.4-.4-.3h-.8s-.4.1-.4.1v.3c0,0-.6.1-.6.1l-4.1-2.2-.2-.6-.6-.5h.2v-.3l-.6-1.2-2.7-3.9-.2-.7-.4-.2-.2-.3v-.4c0,0,.3-.4.3-.4l.8-2.1v-1.1s.6-.7.6-.7h.4c0-.1.4,0,.4,0h1.1c0-.1.8-.4.8-.4l.7-.5h.2s.4.8.4.8h0ZM80.9,111.5l.4.3h.7c0-.1.3.6.3.6l1.3.5.3.3,2.1.7-.2-.2h0l1.1.4.5.7-.8,1.3v.9c0,0,1.2,2.6,1.2,2.6v1.2l.2.4h.3l.9-.5.4.2.4.3.8,1.7,2.8.8h1.1s.2-.3.2-.3l1.1-.9.7-.2h.3c0,0,.2.3.2.3l.4,1-.3.8v.5l.4.9v.8c0,0-.7,1-.7,1l-.3-.5h-.2s-.5.4-.5.4v.3s.2.9.2.9l-.2.2v.2s.6.9.6.9h0v.3c-.1,0,0,.5,0,.5h0l.3.5.5.3v.6c0,0,.3.3.3.3h.5s.6.5.6.5l.3-.5h-.2c0,0,0-.2,0-.2l.9-.3h.4c0,0,.8.6.8.6v.7s-.2.4-.2.4l.7,1.5h.3c0,.1.2,0,.2,0l.3.4,1.1.5v.4c.1,0,.8.3.8.3l.4.6,1.7.6h0c0,0-.2.4-.2.4l.4.3h.5c0,.1,0,.7,0,.7l1.4.9.2.4h.4s1.1.7,1.1.7l.7.9.3.2v.3s1.2.4,1.2.4l.5.3h1.1c0,.1,0,1.1,0,1.1h.2c0,.1-.1.9-.1.9l.5.4.3-.3h.1c0,0-.3.9-.3.9l-.8,1h-.6c0,.1-.3.4-.3.4h-.6s-.6.6-.6.6v.6c0,0,.4.8.4.8v.2l-.4.5v.2l.4.4v.2l-.6,1.1-2,1.2-1.2,1.8-1,.3-.4-.4-.6.2h-.6s-.5.2-.5.2h-1.1s-.6.3-.6.3l-.7-.7h-.2s-.2.4-.2.4l-.5-.4h-.2s.2,3.7.2,3.7l.2.4.5.5.2.5.3.4.7.3.4.7.6,1.7.2,1.6h0l-.2.5h0l-.8,1-.7.6-1.1.4-.4.4-1.6,1.1h0l-.3-.5-2-2.2-.4-1.6-.8-1.2v-.5s.8-.7.8-.7l.3-.6v-1.2s-.4-1.7-.4-1.7l-2-2.9-1.4-1.8-.9-2.4-.8-.8.4-.6v-.6c0,0-.4-1-.4-1l-.4-.3h-.8c0-.1-.8-.9-.8-.9l-.4.3h-.4c0-.1.1-.7.1-.7h.4c0,0-.3-.6-.3-.6h-.4c0-.1-.6-.9-.6-.9v-.3s.3,0,.3,0l-.3-.7.3-.4v-.3l-.6-1.6-.3-1.4-.3-.5-.4-.6-2.8-2.8-.7-1.4-.7-.9-2.3-1.9v-.2l-.5-.7-1.1-.7-.4-.8v-.5l-.7-1.2h-.2c0-.1.2-.8.2-.8v-.4c-.1,0,0-.3,0-.3l-.6-.9-.9-.6-.6-.6-1.3-.7-2.3-.9-.7-.2-.4-.9-.4-.3h-.8c0,0-1.1.3-1.1.3l-1.2-.4.9-1.4.8-.3h.8c0,0,.6-.9.6-.9l.9-1.6h.5c0-.1,1.2-.9,1.2-.9l1.1.4,1.5-.5.5.7v.4c0,0,.7.5.7.5l.8-.4h.3s.5,0,.5,0v.2c.1,0,.8,0,.8,0h.7c0-.1.5-.4.5-.4l.7-.8v-.7l-.7-.5v-1.2c0,0-.7-.2-.7-.2h-.6l-.3-.8v-.3l.3-.3v-2.1c0,0,.5-.3.5-.3h.3s0,0,0,0Z"/>
  <path id="ID-SG" class="st0" d="M446.9,174.6l1.6.4.6.3.5.5h.4c0,.1.7-.4.7-.4l.7-.2h.4c0,0,.6,1.4.6,1.4l-.3.6v.3l.2.3,1.1.6,1.2.2.4-.2,1.1-1.1,1.5-.6h0l2.6,1.1,2,.6.6-.3h.7c0,.1,1,0,1,0l.4.2.5.7,1.1.2.2.3v.9c-.1,0,.3.2.3.2l.4.6h.5c0-.1.4.9.4.9h.5s.2.1.2.1v.2c-.1,0,0,.4,0,.4h0l-.9,1.2.2.8,1.3.4.4.4.5.2.7,1.2v.4c-.1,0-.5.1-.5.1l-1.8-1.8-.6-.4h-.8s.7,1.3.7,1.3l-.4,1.3-1.2.5v.4s.8,1.3.8,1.3l1.7,1.2,2.2,1.2v.2s.5.7.5.7v.5c.1,0,.6.3.6.3h1.6c0-.1.6,0,.6,0v.4c.1,0-.4.4-.4.4l-.2,1,.7.3v.4c.1,0-.2.4-.2.4l.6,1.3h.2c0,.1,2.5,0,2.5,0v-.4c-.1,0-.9-.6-.9-.6l-.2-.4h.2c0-.1.6,0,.6,0l.7.5.7,1.6.2,1.1v2.8c-.1,0-1.3,1-1.3,1l-.8-.5-1.7-1.5h-.3c0,0-.2.2-.2.2l.2.4,1.2,1,.4.6v.4c0,0-.2.3-.2.3h-.4c0,.1-.3-.3-.3-.3l-.6.3-.7-1.3-.8-.5-1.3.8-.8.2h-.8c0-.1-2.7.7-2.7.7h-.8c0-.1-1.3.6-1.3.6l-.9.2-.6,1.2-.4,1.4.3,1.1.9.8v.3s-1.2,1.3-1.2,1.3h-1.7s-1.5-.7-1.5-.7l-2.1-.2-.6.3h-.4c0-.1-.2-.5-.2-.5l-.5-.3-1.6-.6-.5-.5-.2-.5-.6-.6-.2-.4.2-1.8h.2c0-.1.6-2.3.6-2.3v-1.4c0,0,.3-1.2.3-1.2l.5-.2.7-1.4v-1.4c0,0-.3-.6-.3-.6l-1.3-.5-2.4-.4-.5-.4-1.1-1.6-.5-.2-.2-.4v-.5h-.5c0-.1-.6,0-.6,0l-1-1.4-3.1-2.7-.6-.8-.4-.2-.2-.7v-.8s.3-.9.3-.9l1.6-2.2.7-.4.6-1.5v-2.3s.1-.6.1-.6l.4-.4v-1.2s-.2,0-.2,0v-.4c.1,0-.1.1-.1.1l-.2-.2v-.8h-.2v.4c-.1,0-.7-.1-.7-.1v.3c.1,0,.3,0,.3,0v.2s-.4,0-.4,0v-.7c0,0-.4-.2-.4-.2v-.2s.5.1.5.1l.5-.7h.3Z"/>
  <path id="ID-SN" class="st0" d="M445,252.6h1.1c0,0,1.2.3,1.2.3l-.3.5h-.8c0,.1-3.2-.4-3.2-.4l-.4-.3v-.2s.4-.3.4-.3l1,.3h1ZM440.7,248.4l1.1.6.5-.3v.5c.1,0-.1.8-.1.8l-1.7.2-.6-.4-.2-.6v-1.2c.1,0,.6.1.6.1l.5.4h0ZM437.6,237.7l-.4.9-.3-1.8.2-1.3-.5-2.5v-4.3c0,0,.3-2.1.3-2.1l.2-.3h.2s.1.3.1.3v.6s.4.8.4.8l.7,2.7-.5,3.9-.5,3h0ZM426.5,161.6l.4.5.3-.3h.6c0-.1.9-1.1.9-1.1l.3.2h1.5c0-.1.1.4.1.4l.8.4h1.8l1.3.6.8-2.5v-.4h.3c0-.1,1.3,1.3,1.3,1.3l.2.5,1.5,2,1.1,1.1,1.3.7.8.3h.8v-.3c0,0,.5-.1.5-.1h1c0,.1.2.4.2.4h.8c0,.1,4.7,2.1,4.7,2.1l1.7.3,1,.6h.9c0,0,.7,0,.7,0l1.3,1,.6.2h.8c0,0,.7,1.1.7,1.1h.5c0,0,.6.4.6.4l1.3,2.6-.6.2-.3.3-.8,1.5-.4.2-.2.8h0l-1.5.6-1.1,1.1-.4.2h-1.2c0-.1-1.1-.7-1.1-.7l-.2-.3v-.3l.3-.6-.6-1.4h-.4c0,0-.7.1-.7.1l-.7.6h-.4c0-.1-.5-.7-.5-.7l-.6-.3-1.6-.4h0l.4-.5-.8-1.1-3.7-1h-.7c0,0-1.6.6-1.6.6l-1.8,1.1-3.4,2.5-3,1.8,1.1,3,1.3,1,.6.2.5.9v.9c-.1,0-.2,3.5-.2,3.5l.6,1.3.3,2.2v.5c-.1,0-1.3,1.9-1.3,1.9l-.3,1-.2,3.4.8,1.1-.5,3.7.7,1.8.5,3.2-.5,1.8-.9.9-.5.3v2.4s-.7,2.8-.7,2.8l2,3.5,1.4,4.6v.2c-.1,0-1-.3-1-.3l-1-1.6-.4-.2-1.9.5-1.3.7-.8.2-2.9-.6-1.3,1.1-.2.8-.9.6h-1.9c0,0-.3-.3-.3-.3l-.2-.5v-.3s-.3-.4-.3-.4l-2.8-1-1.9-2.8v-1.1s.4-2.7.4-2.7l.4-.8,1.2-1.6.9-2.2v-.8c0,0-.3-.9-.3-.9l-.2-1.4,1.8-2.9.5-4.1v-2.4s-.4-3.7-.4-3.7l-1.1-1.7-1.5-3,.5-1.4.6-.9-.5-1.4h0l-.3-1.9-.5-1.2v-.9c0,0-.8-.7-.8-.7v-.4l.4-.3h.4s.2.2.2.2l.9-.2.2-.2.2-.6.7-.2h1s0-.3,0-.3l-.6-.7-.5-1.2.3-.7v-.6c-.1,0-.4-.3-.4-.3l.2-.9v-1l.3-.8.8.3,1-.4h.5l.7-.8.2-.7,1.2-.9.2-.6v-.8c-.1,0-.3-.4-.3-.4l-.6-.3-.9-.2-.2-.2-.3-.5v-.9l-.3-.3-1.5-.7v-1.3s1.8-1.3,1.8-1.3l.5-.4v-.4c.1,0,.9-.1.9-.1v-.3c.1,0-.1-.9-.1-.9l1-.5h0Z"/>
  <path id="ID-SR" class="st0" d="M421.3,141.4v.9c.1,0-.1.6-.1.6v.9s.3.9.3.9l.2,1.4v.2c0,0,.5,0,.5,0v.5s-.5,1.2-.5,1.2v.6s-.1.4-.1.4l-1.5.2-.2.4.5-.2v.2c.1,0-.5.3-.5.3h-.6c0,0,0,.3,0,.3l.5.6.3.2h.4c0,0,.4.5.4.5h.6c0,0,.6-.5.6-.5h.4l.8.4.6.6v.3c0,0-.6.6-.6.6l.3.9,1,1v.6c0,0,.3.1.3.1l.4.8-.3.4v.5c-.1,0,.3.3.3.3h.6c0,0,.5.2.5.2h.3c0-.1,0,2.6,0,2.6v.3c.1,0-.2.2-.2.2l.2.9h0l-1,.5.3.9v.3c-.1,0-.9,0-.9,0v.4c-.1,0-.6.4-.6.4l-1.8,1.3v1.3s1.5.7,1.5.7l.3.3v.9l.3.5.2.2.9.2.6.3.2.4v.8c.1,0-.1.6-.1.6l-1.2.9-.2.7-.7.8h-.5l-1,.4-.8-.3-.3.8v1l-.2.9.3.3v.6c.1,0-.2.7-.2.7l.5,1.2.6.7v.4s-1.1,0-1.1,0l-.7.2-.2.6-.2.2-.9.2-.2-.3h-.4s-.4.3-.4.3v.4l.7.7v.9c0,0,.6,1.2.6,1.2l.3,1.9h0l-2.4-.9h-1c0-.1-1.3,1-1.3,1h-.5c0,0-1,0-1,0l-1.4.3-1.5.7-.5.6h-.2c0,0-1.4-3.3-1.4-3.3v-.8c-.1,0-.2-4.6-.2-4.6l.3-.2.7-2.9v-.4c0,0-.4-.3-.4-.3l-1-.2-.7.3-.2-1.5.4-1.6.4-.7.4-.2.7.6h.7l1.7-1.1,2.4-2.4v-1l-.4-1.1v-.8s.3-1.2.3-1.2l1.2-3.3.5-.6.5-.2.7-.2.6.3.3-.6.3-1.6v-.3c-.1,0-.7-.3-.7-.3v-.2c-.1,0-.6-1.7-.6-1.7v-.5s.4-1.1.4-1.1l-.5-2.2v-1.3c-.1,0,0-.2,0-.2l.7-.5-.2-.9-.2-.3v-.3s.8-1.5.8-1.5l1.8-1.5.4-2,.5-1.4.3-.5.7-.5Z"/>
  <path id="ID-SS" class="st0" d="M148.2,209.6v-.3c0,0-.3-.6-.3-.6h-.4s-.6-.3-.6-.3h-.4c0,0,.4-.4.4-.4l-.2-.9-.3-.4-.6-.5h-.8s.7-.7.7-.7l-1.1-1,.3-.5.6-.5v-.6s-.3-.6-.3-.6l-.6-.2-1,.4-.6-.3-.3-.6h-.4c0,0-.6-.1-.6-.1h-.7s-.7-.4-.7-.4l-.5-.6-1.9-.3v-1.6s-.5-.7-.5-.7l-.5-1.4h-.4c0,0-.3-.3-.3-.3h-.9c0,.1-1.3,0-1.3,0h-.2c0-.1-.3-.6-.3-.6l-.4-.2-.6.3-.8-.2-.7-.4-.9-1.1-.9-.5-.2-.4-.4-.4-.7-.2.5-.2.2-.4,1.3-.5v-1.1c.1,0,.8-.8.8-.8l.5-.3v-1.4c0,0,.2,0,.2,0l.5.3.5.6.4.6h.2c0,0,.7-.7.7-.7l.3-.7h.3c0,0,0-.2,0-.2v-.9c.1,0,.1-.8.1-.8l.2-.4-.2-.4h-.8c0,0-.8.2-.8.2l-.2-.2v-.6c0,0,0-.1,0-.1l-.6.2-.6-.3h-.3c0,.1-.3-.4-.3-.4v-.3s-.3-.1-.3-.1l-.9.6h-.9s-.8.6-.8.6l-.2-.2h-.6c0-.1-1.7-1.6-1.7-1.6l.2-.5h-.2c0-.1.1-1.4.1-1.4l-.3-.7-.6-.6-1-.2-1.2.4-.5-.4h-.6c0-.1-.4-.8-.4-.8l-.3-1.2h-.4c0-.1-.1-.4-.1-.4l-.9-.5v-.7c-.1,0-1-.5-1-.5l-.2-.6h.5c0,.1.4-.6.4-.6l.6-.2.2-.2h.8c0-.1.4-.6.4-.6v-.7c0,0,.6-.2.6-.2l.8.5h.3l.2-.2.5.3.6.6.7.2h.8v.2c0,0,.7-.4.7-.4h.4c0,0,.5.1.5.1l.6-.6v-.3l.2-.2.8-.3.9-.8.3.2h.3s.4-.4.4-.4l1.1-1.8.5-.4-.6-1,.6-.8.7.3,1.9.3.3-.5h.2s0,.3,0,.3l1.1.4,1.5-.6-.2-.7-.7-.7.2-.6.2-.3h.3c0-.1.2-.6.2-.6l.3-.2h.5c0,0,.3.4.3.4v.8c0,0,.7.6.7.6l.2.4.8.4.4.6h.5c0,.1.2.5.2.5h.2s-.1-.8-.1-.8l.2-.2-.2-1.6v-.4c0,0,1.2-.3,1.2-.3l.7-.5-.6-.5v-1.3l.2-.4v-.3c0,0,.1-.8.1-.8v-.8l1.1-1,2.2-.8h1.7c0,0,.3-.6.3-.6l.7-.4h.4c0,0,1,.6,1,.6l.5-.2h.8l1.1.3,1.4-.3.9-.4h1c0,.1,1-.2,1-.2l.3-.4v-.8c-.1,0,0-.3,0-.3l.3-.2h.5c0-.1,1.3.4,1.3.4h0l.6,1,.2.9-.2.5-.5.4-.3.7v.7l.2.4h.2c0,0,.5-1.3.5-1.3h.4c0,0,1.3,1.2,1.3,1.2l2.1,1.3h1.4c0,0,.7.7.7.7l.2.5.3,1.6v.5c0,0-.3.4-.3.4h-.4c0,.1-.4.7-.4.7h-.3c0,0-.6.4-.6.4l-1.1,1.8h.9c0,.1.3,0,.3,0l1-1.5,1.1-.2.4.8h1.1c0,0,.5.4.5.4l1.5.4,1.5-.8,2.4.8,3.1.3h1.6s.3.6.3.6l-.5,1.7.3,1.4.2.4.7.6.7.2h.8s.3.1.3.1l.2.6-.2,2,.6,1.3.7.6h1c0,0,.7-.1.7-.1h.3c0,0,.8.4.8.4l.4.4v1c.1,0,0,1.2,0,1.2l.8,1.6v.4l-.3.4-1.7.9-1.1,1.2-1.2,2.5-.3,1.1v1.1c-.1,0,0,.9,0,.9l.4.5,1.3.7.4,1-.2.9-.9,1.4-.6,1.3-.2,1.6-.3.4h0l-.3-.6-.5-.3h-.2c0,0,0,.3,0,.3h-.3c0,.1-.8,0-.8,0h-.2c0-.1.1-.6.1-.6h-.3c0-.1,0-.4,0-.4h-.6v-.2l.3-.3h0c0,0-.5,0-.5,0h-.2c0-.1,0,.1,0,.1h-.2c0,0,0-.3,0-.3l.4-.5-.3-.3v-.2l-.5-.4h.4v-.3c-.1,0-.2,0-.2,0l-.3.2-.2-.2v-.4c0,0-.3-.3-.3-.3l-.2.2-.4-.2v-.8c.1,0-.5,0-.5,0l-.2-.3h-.8c0,0-.1-.7-.1-.7h-.3c0,0-.5,0-.5,0l-.3.2-.3-1.1h-.2c0-.1-.4.3-.4.3v.6c-.1,0-.5.3-.5.3l.3.6-.2.5-.7.6-.7-.2-.5.3v.5c-.1,0-.3,0-.3,0h-.2c0-.1-.3.9-.3.9l-.4.4.3.4h-.4c0,0-.3.4-.3.4l-.3,1-.6.4-.4.5h-.6s-.6.2-.6.2l-1.1.6v.3c0,0-1.6.2-1.6.2h-2.2c0-.1-.2-.2-.2-.2l-.4-.5-.7.6-1.2.5-.6.5h-.6c0,0-.5.5-.5.5l-.8.6v.4c0,0-.4,0-.4,0l-.3.8.3,2.7-.6.6-.3.8.5.3v.8c0,0,.7.6.7.6v.4c.1,0,0,.4,0,.4l-.7.9h-.4c0,.1-.4-.3-.4-.3l-.3.2h-.4l-.5-.3h-.4c0,0-.1.5-.1.5l-1,.5-.9-.3v-.2c0,0-.3,0-.3,0l-.2.2-1.4.2-.5-.4-.2.9-.3.4-.8-.7h-.4v-.2l.4-.4v-.5l-.4-.5h-.4s0-.5,0-.5h-.6c0,0,0,0,0,0Z"/>
  <path id="ID-ST" class="st0" d="M491.7,219.5h-1.2c0,0-.6-1.3-.6-1.3v-.8c0,0,1.2.1,1.2.1l.5.4.2.4v1.2ZM463.8,221.3h-1c0,0-1.7-2-1.7-2l-1-1.6v-.8c0,0,.9-2.2.9-2.2l.9-.6,1,.2.2.2,1.4,2.6v3.3c-.1,0-.3.6-.3.6l-.4.2ZM475.9,206.8l.6,4,.2.4v1c0,0-2.3,1.9-2.3,1.9l-.8,1.7v.5c0,0,.5.4.5.4l.4,1-.2,1.3-.7,1.2-.9.3-1.6-.6-2.5-.2-.5-.2-.2-.9.8-3,.3-.6.9-.5v-.3c.1,0,0-1.5,0-1.5l-1-2.3.7-1.6.4-.2h1c0,0,1.1-.4,1.1-.4l1.4-1.1,1.6-.8.6.6h0ZM484.4,207.9v2.1s-.2.9-.2.9l-.6-.7v-1c.1,0-.6-1.1-.6-1.1l-.4.2.2,2.1-.4.2-.6-.2v-.2c-.1,0-.1-.4-.1-.4l.4-.5v-.4s-.2-.1-.2-.1l-.4.2-.5,1.3-.4,1.9-.2,2.8.7.6h.4c0,0,2.9,2.2,2.9,2.2v.4s-1.2,1.6-1.2,1.6l-1.6.7h-.3c0,0-.6-.5-.6-.5l-1.7.8-.5.4-.2.7h.7c0,0,.2.4.2.4l-.2.6-1.3,2-.4.3h-2.6c0-.1-.9-1.6-.9-1.6l-.6-1.6,2.9-4.4.8-2.1,1.2-5.5-.2-2.8.4-1.3.9-1.8,2-1.4h.5c0-.1.4,0,.4,0l-.3.5.2.8,1,.6,1,1.4.4,2.1h0ZM482.1,196.2h.4c0,0,1.5-.3,1.5-.3l.7.7.4.7v.7c0,0-1.7,2.1-1.7,2.1h-.2c0,.1-1.4,0-1.4,0l-.9-.9-.9-1.2-.2-.5v-.7s.9-1,.9-1h.7c0-.1.7.4.7.4h0ZM484.3,147.3l.5,1-.7,1.1.9,1.6h.4c0,0,.4-1.1.4-1.1l.5-.4.2-.5.6-.7.8-.4,2.5,1.2-.4,2.8-.7.4-.6.9h-.5s-1.2-.5-1.2-.5l-.3-.6-.7-.7-.5.2-.3.5-.2.6v1.7c-.1,0-.3.3-.3.3h-.3l-.5.3-.5-.3h-.8c0-.1,0-.5,0-.5l.2-.3h.4s.8-1,.8-1l-.3-1.1-.3-2.2-.2-.3-.4.3-1.2,1.3-.3,1.1-.7.9v.3s-1.2,1.1-1.2,1.1l-.4.2h-.5c0-.1-.7-1.7-.7-1.7l-.5-.2-.2-.3v-.9l.5-1.8,1-1.2.3-.5.3-.4h.4s.7.4.7.4l.4-.3,2-.6.6.7.4-.9h.3l.3.4h0ZM450.3,105.9h.4c0,0,2-.2,2-.2l.9-.8h.3l.3.2v.4l-.2.3h-.6s-.2.2-.2.2h.2c0,.1.2.8.2.8l.6.8.9,1,.6.3.7.2,5.7-.8h.2c0,.1.6,1.3.6,1.3h.3c0,.1.4,0,.4,0l.9-.7h.5s1.8.8,1.8.8h0l-2.3.8h-.3s-.5.6-.5.6h-.4v.7c-.1,0-.4.3-.4.3l-.4-.2-.5-.5-.5-.8h-.9c0,.1-.8.8-.8.8l-1.1.3-2.1,1h-1.5l-.5.4h-1.3c0,0-.9-.6-.9-.6l-.4.4v1s-.5,0-.5,0l-1-.4-1.1.4-.4.3v1.1c0,0-.4.2-.4.2l.3.4.6.3.5.8,1.1.3h.7s.2,1.5.2,1.5l-.3.5h0l-1.4-.4-1.7.4-.6.8-2-.2-1.5.3-.6-.2-.4-.4-1.9-.6-.8-.5-3.4-.2-1.1.7-1.7.6-1.7,1.7-2.1,3.1.4.3-.5.8-.2,2.1-.6.6h-.5c0,0,0,1.3,0,1.3l-.5,1v1.4s.3.6.3.6v.9s.7,1.5.7,1.5l-.3.9v2.2c-.1,0,.2.7.2.7l1.2,1.8,2.4,2.6.2.5.5.3h.4s.8-.6.8-.6h.3c0,0,.6.4.6.4l.2.6h1.1c0,.1,1.4,2.4,1.4,2.4l-.5,1.5v.6c0,0,.4.5.4.5l.5.2,1,2.2h.5c0,0,.8-.4.8-.4l.2-.6.5-.2h.7v.7l.2.3.5.2,1.2-.2,2.4.3.4-.3,1-1.2,1.1-2.2,2.2-2.8h.4c0-.1.3-.6.3-.6l.9-.7.7-1.2.6-.4,1.1-.3.2-.9h.5c0-.1.3-.2.3-.2l.3.3-.3,1.5.2.4h.2l1.1.6,2.2.2.9.4,1.3-.9h.8c0-.1.7.1.7.1h.5s.5-.5.5-.5l.4-2,1.5-.6,1,.4,2.7-1,3.7.5h1.7s2.6-.3,2.6-.3l.7-.4v-.3c0,0-1.5-.5-1.5-.5l-2-.2-.5-.3v-.3s1.5-.6,1.5-.6l1.5-.2h1.8s.5-.1.5-.1l.4-.6h.2s2.7.1,2.7.1l1.5.6,1.7.9.8,1.9v1.2c-.1,0-.9.9-.9.9l-.3,1.9-.5.7-.3.2-1.1-.2-.4-.2-1.3-1.5-.3-.9-1.5-.3-4.3.6-.4.5v.7c-.1,0-.6.9-.6.9l-1.3,1.4-1,1.7-1.2.9-2.1,2.2-1.1,1.4-3.7,2.1-2.6.3-1,.7-2,.4-.7.5-1,2.4-.9.9-.5.3-1.1.2h-1.1c0,0-.3-.7-.3-.7l-1.3-1.3-2-.8-.5.3-.2,1,.9,2.5.4-.3h1.1c0,0,.9.9.9.9l1.5,2.2.9.3.9-.2.8.2,2.1,2.2,2.3,3.9.8,2.5,2,1.6,3,2.1v.7s-.7,1.1-.7,1.1v.4s1.9,1.7,1.9,1.7h.2c0,.1.5-.1.5-.1l.9.7-1.1,1.3-1-.3-.3.3h0v-.4c-.1,0,0-.2,0-.2h-.2c0-.1-.5-.1-.5-.1l-.4-1h-.5c0,.1-.4-.5-.4-.5l-.4-.2v-.9c.1,0,0-.3,0-.3l-1.1-.2-.5-.7-.4-.2h-1c0,0-.7,0-.7,0l-.6.3-2-.6-2.6-1.1h0l.2-.8.4-.2.8-1.5.3-.3.6-.2-1.3-2.6-.6-.5h-.5c0,0-.7-.9-.7-.9h-.8c0,0-.6-.3-.6-.3l-1.3-1h-.7c0-.1-.9,0-.9,0l-1-.6-1.7-.3-4.7-2h-.8c0-.1-.2-.3-.2-.3h-1c0-.1-.5,0-.5,0v.3h-.9l-.8-.3-1.3-.7-1.1-1.1-1.5-2-.2-.5-1.3-1.4h-.3v.5l-.8,2.5-1.3-.6h-1.8l-.8-.4v-.6c-.1,0-1.6.1-1.6.1l-.3-.2-.9.9h-.6c0,.1-.3.5-.3.5l-.4-.5h0l-.2-.9.4-.2v-.3c-.1,0-.2-2.8-.2-2.8h-.3c0,.1-.6-.1-.6-.1h-.6c0,0-.4-.2-.4-.2v-.5c.1,0,.4-.4.4-.4l-.4-.8h-.4c0-.1,0-.8,0-.8l-1-1-.3-.9.5-.6v-.3c0,0-.5-.6-.5-.6l-.8-.4h-.4l-.6.5h-.6c0,0-.4-.5-.4-.5h-.4c0,0-.3-.2-.3-.2l-.5-.6v-.3h.6c0,0,.6-.4.6-.4v-.2c-.1,0-.7.2-.7.2l.2-.4,1.5-.2.2-.4v-.6s.5-1.2.5-1.2v-.5s-.4,0-.4,0v-.2c0,0-.2-1.4-.2-1.4l-.3-.9v-.9l.2-.6v-.9h-.1l1.9-1.6v-1c.1,0,.8-.6.8-.6h.3s.9,1.9.9,1.9l.2,1,.6.9h.2s.3-.5.3-.5v-.5c0,0-.2-1.8-.2-1.8l-.8-1.1-.8-2.8v-2.6h.3v-.8c.1,0,.8-1.6.8-1.6l-.3-1.2-1.4.4h-.3c0-.1-.7-.6-.7-.6l-1-1.8,1.1.2v-.6c0,0,.8.4.8.4l.5.4v.4s.5.3.5.3l.2.5.7.2.7-.8.4-1v-1.6s-.4-.6-.4-.6l-1.3-1.4v-.4c-.1,0,.3-.3.3-.3l.8.3h.9s0-.2,0-.2l-.3-1-.6-.7v-.2s.5-.8.5-.8v-.7s.5-.7.5-.7l.6-.4h1c0-.1.5-.5.5-.5v-.8c.1,0-.2-1.7-.2-1.7v-.5s.2-.3.2-.3l.7-.6h.8l1.8-1,.3-.5v-1.5s.3-.7.3-.7l.6-.4h.6s.3.2.3.2v.5c0,0-.1,1.1-.1,1.1v.4c.1,0,1.5.9,1.5.9l2.7.5.5-1.2v-.8c.1,0,.8-1,.8-1l.7-.7,1.1-.4.8-.9.5-2.3-.2-1.4.2-.8,2.1-.3,2.5.3.8.3,1.7,1.1h0Z"/>
  <path id="ID-SU" class="st0" d="M55.6,131.3h.4s.7.9.7.9l.5.9v.5s-.3.4-.3.4l.2.2-.2.8v.5c.1,0,0,.3,0,.3h-.2c0,0,.4.8.4.8v.2c0,0-.3.1-.3.1h-.4c0,0,.2-.6.2-.6h0c0-.1-.3.1-.3.1h-.3c0-.1-.2,0-.2,0l-.2.4.2.3v.2c0,0-.4-.4-.4-.4l-.6-.4-1.4-.5.6-.2v.2s.4,0,.4,0l.2-.8.3-.2v-1.2c0,0,.1-.8.1-.8l.4-.4.4-.2.2-.4-.5-.7h.2s0,0,0,0ZM55.1,127.1v.2c0,0,.4-.2.4-.2v.5l1.1,1.3v.6c.1,0,0,.4,0,.4l.3.5v.3s.9.7.9.7l.4.6v.9c0,0-.5,0-.5,0v.2c0,0,.2.6.2.6v.2c-.1,0-.6-1.2-.6-1.2l-.3-.2-1-1.6h-.2v-.5l-1.1-1.4h0c0-.1-.3-1.1-.3-1.1l-1-.5,1-.5h.7q0,.1,0,.1ZM59,124.1h1c0,0,.5,0,.5,0l.3.3,1.3-.2,1,1v.4c-.1,0,0,.1,0,.1h-.4c0,0-.2-.1-.2-.1h-.6c0,0-.5.3-.5.3h-.4c0,0-.4-.1-.4-.1h-.9c0,.1-.9-.2-.9-.2h-.9s-.3-.2-.3-.2v-.7c-.1,0,.7-.5.7-.5h.7c0-.1.1,0,.1,0ZM40,102.6l.3.8,2.5,3.3,1.8.6,2.1,1.9.5,1.2-.7,1.6-.2,4-.3.5-1,1.1-1.9-.5-.3-.4.2-.3-1.3-3.4-2.1-2.1h-1c0,0-.5-.3-.5-.3l-.3-1-.8-1.6-1.6-2.7-2.3-2.3.8-.3h1.1c0,0,.5,0,.5,0l1.4-1.2,1.1-.2,1.5.5.7.8ZM56.9,98.5h.7c0,.1.3-.4.3-.4l.4.2.4.7h-.7c0,.1-1.3,0-1.3,0l-.7-.3-.2-.5.5-.6.6.2v.6h0ZM21.2,86.8l-1.7-.2-.3-.2-.3-1-4.1-2.7-3.1-1.1-1-.2-2-1.9-.2-.6v-.3c0,0,1.7-2,1.7-2l1.6.3,2,2.4.6.3,1.2.2,2,2.1,2.3,1.6,1.5.6.5.7v.5s.4,1.1.4,1.1l-.9.4h0ZM50.9,90.1l.6-2.8-.5-1.6-.8-.3v-.7c0,0-.3-.6-.3-.6l-.2-1,.2-1.4.6-.2v-.3s-.5-.5-.5-.5l-.2-.7v-.4c0,0,.4-.5.4-.5l-.2-.3v-.3s-.9-.1-.9-.1l-.6-1.1-.9-.2v-1.1l-.3-.9v-.5s-.2-.3-.2-.3h.2c0-.1.6,0,.6,0v-1c0,0-.5-.7-.5-.7v-.7c0,0-.6-.5-.6-.5h-.6c0-.1,0-.3,0-.3l2.4-.7.2-.8-.4-.7h-.3c0,.1-.7-.3-.7-.3v-.4s-.3-.6-.3-.6l.3-.5-.6-.4-.2-.9-.7-.3v-.7s-.2-.2-.2-.2v-.3l-.5-.5-.3-.8.4-.6,1.5-1.2v-.3c.1,0-.3-.7-.3-.7v-.3c0,0,.3,0,.3,0l.6.4.2-.3v-.4c0,0,1.1-.7,1.1-.7l.2-1.3.2-.3v-1s.4-.7.4-.7l-.2-.5.4-.2v-.4s-.3-.5-.3-.5v-.2c0,0,.5,0,.5,0h.6c0-.1.3-.2.3-.2v-.3c0,0,.8-.2.8-.2l.8.2h.4c0-.1,0,2.6,0,2.6l.8,1h1.2s1.5.6,1.5.6l1.1.7.8,1.3,1.7.4.3.6v.5c0,0,.1.8.1.8l2.1,1.4,2.2.7,1.8,1,4,2.5,1.2,1.1,1.2.5.9.7.7,1.3.4.3.5.3,1.4.4,1.9,1.1,2.4,2.4,1.4,1.1v.3c.1,0,.2,2.2.2,2.2v.6c-.1,0-.7.8-.7.8v.4s1.2,1.3,1.2,1.3l-.3.3.5-.2-.3-.8.2-.5-.5-.4h-.4s0,0,0,0l.9-.6h.4c0,0,.7.8.7.8v1.4c0,0,.7,1.7.7,1.7h.1s-.4-1.6-.4-1.6v-.7l.3-.5.6-.3h.6s.7.9.7.9l.7,1.3.5.5.2.6-.4,1.3v2c.1,0,.8,1.6.8,1.6l.2.9-.5,1.7-.2,3-.5,1.2v.4l.3.3,1.9.3.2.8-.3.3v.4s.5.1.5.1v.3c0,0,0,.4,0,.4l.2.3v.5c0,0-.5.7-.5.7v.4c0,0,.2.2.2.2v.5c-.1,0-1,.7-1,.7h-.8v.4s-.3.2-.3.2h-.6c0-.1-.5,0-.5,0v.3l-3,.2-.4.3v.4s.3.2.3.2h.2s.5.9.5.9l.2,1.6.3.5.6.4v.3c0,0-.5,0-.5,0l-.6.3v.4s.3.2.3.2l.3,1-.2.6-.2.3h-.8v.3l.4.5h.4s-.1.4-.1.4v.7c.1,0-.2.2-.2.2l.5.7.6.4-2.1-.7-.3-.3-1.3-.5-.3-.7h-.7c0,.1-.4-.2-.4-.2h-.3s-.6.3-.6.3v2.1c0,0-.2.3-.2.3v.3l.3.8h.6l.6.2v1.2c0,0,.8.5.8.5v.7l-.7.8-.5.3h-.7c0,.1-.6,0-.6,0v-.2c-.1,0-.6-.1-.6-.1h-.3s-.8.5-.8.5l-.6-.5v-.4c0,0-.6-.7-.6-.7l-1.5.5-1.1-.4-1.2.8h-.5c0,.1-.9,1.7-.9,1.7l-.6.8h-.8c0,0-.8.4-.8.4l-.9,1.4h-.2c0,0-.3-.3-.3-.3l.3-.2v-.9l-.8-.5.4-1.2-.6-2.9-1.2-3.3-1.2-2.8-2.2-6.4-1.3-3-.8-1.1v-.3s.2,0,.2,0l.5.5h.2c0,0,.2,0,.2,0l.8-1.3v-.8s-.9-1.4-.9-1.4l-.8-.6h-.3s-.2.3-.2.3l.5.2.2.7h-.4s-.7-.4-.7-.4l-2-2.8-.6-.5-1.5-.9-3.4-1.7-1.5-1.1h0Z"/>
  <path id="ID-YO" d="M270.3,268.5h-2c0,0-5.9-2.2-5.9-2.2l-.4-.3-.2-.5-2-.6-2.5-1.3-1.3-.5h.6s.3-1.2.3-1.2l.4-.2.2-.4h.3c0-.1.3-.6.3-.6v-.9c.1,0-.2-.3-.2-.3l.2-.4.6-.2h1.3c0,.1.3,0,.3,0l.2.2v.6s.2.1.2.1l.6-.8,2.4-1.9.8,3.9h.3c0,0,.4.5.4.5l.4-.2h.2c0,0,.2.4.2.4l1.1-.2h.1c0,.1.2,0,.2,0l.2.3h.4s.2-.3.2-.3h.3c0,.1.4.6.4.6l.2-.3.3.2v.9s-.3.8-.3.8v1.1s-.2.5-.2.5l.6,1.6v.8s.2.2.2.2l.3-.4h.2s-.2.6-.2.6h0c0,.1.2,0,.2,0h.1s0,.6,0,.6Z"/>
  <path id="TL" class="st0" d="M506.3,285.5v.3s-.2.2-.2.2v.6s-.2.4-.2.4v.6c.1,0-.2.1-.2.1v.4c-.1,0-.6,0-.6,0l-.3.4h-.2s-.1.3-.1.3v.2c.1,0-.4.7-.4.7l.2.5-.2.5-1.2.3v-.9c.1,0-.1-.6-.1-.6l-.8-.8h-.2s-.7.4-.7.4l-.2.5h-.4c0,.1-.3-.2-.3-.2h-.5s-.9-1.2-.9-1.2h0l1.8-.7.6-.7,1.9-.7,3.2-.8h0ZM554.3,273.3l-2.8,2.2-1.3,1.3-3.9,1.3-2.3.3-1.3.6-.7.7-.3.8-.8.9-2.6.4-3,.3-3.6,2.4h-1.7c0,0-1.1.4-1.1.4l-6.7,2.2-1.1.7-2,2-1.4.2-.7.5h0l-.2-1.2-.5-.6v-.6s-1-.7-1-.7l-.3-1.1v-.4s.3-.6.3-.6h1s.7.5.7.5h0c0-.1.6-.5.6-.5h.7c0,0-.2-.8-.2-.8l.3-.9v-.9s-.6-.5-.6-.5h-.3s-.4-.5-.4-.5l-.3.6-.3.3-.6.2-.7.5h-.5s-.5-.2-.5-.2l-.2-.4v-.5s.3-.6.3-.6h-.2c0,0,.5-.5.5-.5l2.1-3,.3-1.4.6-.8,1.5-.4,3.4-.7,4.9-.7,2.3-.9h1.6c0,.1.8.3.8.3l.6.3h1c0,0,2.7-.4,2.7-.4l.9-.4,1.2-.9h.9c0,0,1.6.4,1.6.4l.6.5h.4s3.6-1,3.6-1l2.2-1.1,1.8-.6h3.3c0,.1,1.8,1.3,1.8,1.3v.6s-.9.8-.9.8h0Z"/>
  <path id="MY-12" class="st0" d="M384.5,12.9h-.4s-1.1-.2-1.1-.2l-.3-.3v-.2c.1,0,1.1,0,1.1,0l.7-.3v-.2c.1,0,0-.2,0-.2h-.6c0,0,0-.3,0-.3l.2-.2,1-.2.4.3.4.7v.5s-.2.3-.2.3l-1.2.6ZM373.2,13.7h.3c0,.1.4,0,.4,0l.7-.3,3.2-4v-.3c.1,0-.3-1.2-.3-1.2v-.4s.7-.8.7-.8l.4-.2,1-.2.6.2,1.2.8v1c0,0,0,.5,0,.5v1.6c.1,0,.7,2.2.7,2.2l3.1,1.7h1.6s1.5.4,1.5.4l.5.4.8,1.2.3.6-.3,2.2h-.2c0,.1-.7,0-.7,0l-.5.2-.5.4-.2.5v.2s1.1,1.5,1.1,1.5l.2,1.8-.8.7-2.2.8,4.8-.3,1.8-.6,1.7-1.8h.4c0,0,.7.6.7.6l1.3,2.7-.8.9h-.7c0,.1-1.9,0-1.9,0l-.4.3.2.7.6,1.2h2.9c0,0,.5-1.8.5-1.8l.4-.3,1.4-.4,2,.4,1.8.9,1.8,1.2,1.2.9.8.8,4.2,2.8,2.3.4.6-.2.5-.4h1c0-.1.9.6.9.6l.6,1v2.1c0,0-.9,1.3-.9,1.3l-.9.6-1.8.7-2.7.7-3.7,1.5-2.6-.3-1.8-.7-.6-.5h-1c0,0-2.5,1.2-2.5,1.2l-1.2,1.3v.6c-.1,0,2.4,3,2.4,3l2.3,1.5.2-.3h.2s.8.3.8.3v.5s-.3.5-.3.5l.7.7.6-.4h.9c0,0,.9,1.5.9,1.5l-.3.4-1.4,1.1h-2.5s-3.8.8-3.8.8l-1,.3-2.2,1.1-1.6-.4-.7-.7-2.9-1.5-1.1.4.4,1.5-.9,1.2v.5h-.1l-.2-.2-.9.3-1.2-.3-.2-.2-.4-.9-3-2.2-.5.2v.2c0,0-.7.2-.7.2h-.6c0-.1-.6,0-.6,0l-1.1-.2-.3.4-.3-.3h-.6c0,0-.3-.3-.3-.3l-.7-.2-.5.4-.7.2-.5-.3h-.3c0,.1-.4-.4-.4-.4l-.4-.2-.3.5-.3.2h-.3c0,0-.5,0-.5,0l-.8.2-.2-.6h-.4c0-.1-.4-.6-.4-.6l-.5.7v.6s-.4,0-.4,0l-.4-.2-.2.5h-.5c0,.1-.2-.5-.2-.5l-1.2-1-1.5.3-.3-.2-1.4-.2h-.1c0,.1-.1.8-.1.8l-.9.3-.4.8h-.2c0,.1-.6-.4-.6-.4v-.5c-.1,0-.4-.2-.4-.2l-1.5-.3-.3-.6-.5.2v1c-.1,0,0,.4,0,.4l-.7.6v.6c-.1,0-.5.1-.5.1v-.3c-.1,0-.5,0-.5,0l-.8.9h-.4s-.3.6-.3.6v.9h0s-.3,0-.3,0l-.5-.4-.3-.7.4-1.1v-5.7l-.6-3.5-.5-4.1-1.7-.3h0l.9-.4.5-.5.3-1.9-.3-.4h-.5s-.8-.3-.8-.3l-2.2-1.5.4-1.6,2.6-2h4s1-.3,1-.3l.5-.5.8-1.4.4-1.8,2.3-1.6v-1s.7-1.3.7-1.3l.3-2.6,3.8-4.1,3-2.2v-.9c.1,0,2.5-2.7,2.5-2.7v-1.2s.2-1.3.2-1.3l1-2.1.7-.9h.2c0,0,1.1.9,1.1.9v.3c.1,0,.5,2.5.5,2.5v.8c-.1,0-.9.9-.9.9l-.5,1v.7c0,0,0,.3,0,.3h0ZM381.9,1v1.4c-.1,0-.6,1-.6,1l-1.8.2-.9.5-.3.6h-.2l-.2-1.1.2-1.8v-.2c.1,0,1.4-.9,1.4-.9l1.3-.3.8.2s.2.4.2.4ZM374.8,2.6l-.3.7h0c0,0,.5-1.6.5-1.6l2.1-1.4.3.8v.7s-1,.4-1,.4l-1.4.3Z"/>
  <path id="MY-13" class="st0" d="M280.3,86.2l-.8.3-.3-.2-.8-1.3v-.8c.1,0-.2-4.1-.2-4.1l.2-.6.4-.2.4.3.5,1.1v3.5c0,0,.5,2,.5,2h0ZM350.6,40.7l1.7.3.5,4.1.6,3.5v5.7l-.4,1.1.3.7.5.4h.3c0,0,0,.2,0,.2h0l-.7,2.1-.5.4-.9.2v.3c.1,0,.9.6.9.6v.2s0,.6,0,.6l-.5,1v.7c-.1,0-.2,1.5-.2,1.5l.2.9.4.5v1.1c.1,0,.7,1,.7,1l-.4.6-.4-.6h-.3s-.6,1.2-.6,1.2l-.4,2.8v.2s.8.5.8.5v.2l-.8.7v.2c-.1,0-.1.8-.1.8l-.2.3h-1c0,.1-.8.9-.8.9h-1.2c0,0,0-.3,0-.3l-.6-.7-.3.8-1.6,1.1-.2,1.1-1,.8v.2s.6.1.6.1l.2.3-.2.3v.4l-.6.5v.4h.2v1c0,0-.4.4-.4.4l.3.5,1-.3.7.8v.3c.1,0,.6.3.6.3v.3c0,0-.7.5-.7.5h-.8s-.6.2-.6.2l-.5.4-.2.6h-.7l-.5.6-.4.2h-.7c0-.1-.3.5-.3.5l.3.4v.2s-.8.5-.8.5l-1.8.2-.3,1.3v.8s.2.3.2.3l.4.2-.2,1,.2.4.8-.3.5.2v.2s-.7.5-.7.5v.2s.4.8.4.8l-.4.3h-.7c0,.1-.5.8-.5.8l-.5-.2-.6.2v.3c0,0-.4.7-.4.7h.1c0,.1.1,1.3.1,1.3v1c-.1,0-.5.3-.5.3l-.5.9-.8.5v.8c-.1,0,0,.3,0,.3l-.5.8h0l-.2.4h-.4c0,.1-2.6-1.4-2.6-1.4l-.6.5-1.6.7h-.7c0,0-.2.5-.2.5h-.3c0,.1-.2-.1-.2-.1l-1-.7-3,.3-.4.4-1.9.8v.2c0,0,0,.2,0,.2l-.3.8-1.9.8-.4.4-.4.2h-.6c0,0-.8-1.4-.8-1.4l-.7-.3h-.8c0,0-.6.3-.6.3l-.3.3h-.4s-.3-.4-.3-.4l-.6-.4-.2-.3-.7-.5-.8-.2-1.6.2-.8-.2-.4-.7h-.4c0,0-1.4.4-1.4.4h-.8c0,0,.1-.5.1-.5l.3-.3.5-.2.5-1h.2c0,0-.1-.5-.1-.5l-.5-.3h-.6c0-.1-.9,0-.9,0l-.8-.2h-.2c0,0-.4.5-.4.5l-.6.3h-.4s-.5-.4-.5-.4h-1.6c0,.1-2.9-.3-2.9-.3l-1,.4v.3c0,0-.6.3-.6.3l-1.6.3-1.3.8h-.4l-.5.6.4.7v.7s-.9.8-.9.8v1.5c-.1,0-.4.6-.4.6v.7s-3.2.2-3.2.2l-1.4,1.4-.3.8-1.7-.3-.6.2-1-.5h-.3s-1.1.8-1.1.8h-.5c0,0-.1.6-.1.6h-.2s-.7-1.2-.7-1.2h-.8c0-.1-.7.2-.7.2h-.5s-.5-.3-.5-.3l-1.8-.6-.3-.3-2,.6-3.9.5-.3.6-.6.6h-.7c0,.1-1,.7-1,.7l-.8.2-.4.3h-.5s-.5-.4-.5-.4l-.4.7h-.5c0,.1-.7,0-.7,0l-1.2-.4-.4-.3-.9-1.4-1-.2h-1l-.3-1-.4-.7-.5-.4v-.5c-.1,0-.6-.7-.6-.7l-.7-.2h-.6c0,0-.4-.3-.4-.3l-.4-.9-1.5-.7-.2-1.4-.2-.3-.5-.2h-1.3c0,0-.8-1.3-.8-1.3l-.4-.2-1.8-1.8-.3-.7.4-2.1v-.3c-.1,0-1.3-.3-1.3-.3l-.4-.6-.4-.3-.2-.6v-.5c0,0,.7,0,.7,0l.3-.8.4-.2.5-1.4h0v1.2c.1,0,0,1.1,0,1.1l.3.7.7.8,3.3,2.2.5.5h.9c0,.1,4.7-.3,4.7-.3l1.1-1.5h.2c0-.1.2,0,.2,0l2.3,2.7v.3s3.9,1.2,3.9,1.2l.5.3v.3c.1,0,0,.3,0,.3l-1,.9h.2c0,0,.8,0,.8,0l.5-.5.2-1.4h.8c0,0,2.7,1.1,2.7,1.1l1.5,1.6,1.6.7,2.8.5,1-.2-1.6-1.2h-.8c0,0-.9.3-.9.3h-.5c0,0-1.8-1.1-1.8-1.1l-.8-1.2-.2-.7.5-1.6.6-.3,1.9-4.6.6-2,.6-.8.3-.2,1.2.3.4-.2.4-.5v-.2s-.3,0-.3,0l-2.8.4h-.3c0,0,.2-2.1.2-2.1l.5-2.3.2-.4h.3c0-.1,1.2.6,1.2.6l.9.8.5-.3,1-.2-.8-1.9.6-3.3.2-.4,3.8-2.6,2.7-.4h2.2c0-.1,2.5-.6,2.5-.6l13.4-3.4,1.5-.5,1-.5.5-.5.7-1.1,3.3-4,2.4-3.5,1.8-2,2.6-2.1,1.1-1.1,3.3-4.3.7-1.3.5-2v-.8s-.5-1.5-.5-1.5v-.2c0,0,.6-.3.6-.3h2c0,.1,1.9.8,1.9.8l1.5,2.1.2,1.7,1.1,1.2,2.5,2.1,1.2,1.4v.4c0,0,.3.2.3.2h.5c0,0,1.3-.8,1.3-.8l1.2-1.3,1-3.5v-1.2c0,0-.4-.3-.4-.3l-1-4.8v-.4c0,0,1.2-1.1,1.2-1.1l1.6-.2.5-.2.4-.3.5-.8h0l.2,1.3h0l-.2.7.2,2.2.4,1.2.7,3.3,2,.7,2.1.5h.3c0-.1-.1-1-.1-1l-1-.8-.2-.4v-.7c-.1,0-.1-1.4-.1-1.4l.2-.5v-.7c0,0-1-3.1-1-3.1l-1.2-1.6h0l1.2-.9,1.1.6.7.5h.5c0,0,.6-.5.6-.5l1.5-1.7h0Z"/>
  <path id="BN" class="st0" d="M404.6,47.3l-.5.7h-.7s-3.1-1.2-3.1-1.2l2.2-.3,2,.9ZM344.9,42.7l1.2,1.6,1,3.1v.7c0,0-.1.5-.1.5v2.2c.1,0,.4.4.4.4l1,.8v.9c.1,0-.2.1-.2.1l-2.1-.5-2-.7-.7-3.3-.4-1.2-.2-2.2.2-.7h0l.3.2h.2c0,0,1.1-.9,1.1-.9l.4-1h0ZM342.2,42.7v.3c-.1,0,.5,0,.5,0h0c0,.1-.5,1-.5,1l-.4.3-.5.2-1.6.2-1.1,1.1v.4c0,0,.9,4.8.9,4.8l.3.3v1.2c0,0-.9,3.5-.9,3.5l-1.2,1.3-1.3.7h-.5c0,0-.2-.2-.2-.2v-.4c0,0-1.3-1.4-1.3-1.4l-2.5-2.1-1.1-1.2-.2-1.7-1.5-2.1-1.9-.7h1.1s.4.2.4.2l1.7-.2,3.8-1.7.4-.3,2.1-2.2,1.2-.9,3.1-1.9,2.2-.9h.5c0,0,.5,0,.5,0v.2c.1,0-1.9,2.3-1.9,2.3Z"/>
</svg>